<?xml version="1.0" standalone="no"?>
<!DOCTYPE svg PUBLIC "-//W3C//DTD SVG 1.1//EN" "http://www.w3.org/Graphics/SVG/1.1/DTD/svg11.dtd" >
<svg xmlns="http://www.w3.org/2000/svg" xmlns:xlink="http://www.w3.org/1999/xlink" version="1.1">
<metadata></metadata>
<defs>
<font id="notcouriersansregular" horiz-adv-x="1228" >
<font-face units-per-em="2048" ascent="1638" descent="-410" />
<missing-glyph horiz-adv-x="500" />
<glyph unicode="&#xfb01;" d="M246 0v770h-158q-55 0 -55 43q0 41 55 41h158v121q0 109 64 185.5t155 76.5q74 0 153 -31q33 -13 33 -41q0 -17 -11 -29t-28 -12q-3 0 -26 6q-79 23 -119 23q-58 0 -97.5 -51.5t-39.5 -126.5v-121h147q55 0 55 -41q0 -43 -55 -43h-147v-770h-84zM905 0v770h-117 q-55 0 -55 43q0 41 55 41h201v-854h-84zM987 1278v-213h-121v213h121z" />
<glyph unicode="&#xfb02;" d="M905 0v1153h-117q-55 0 -55 43q0 41 55 41h201v-1237h-84zM246 0v770h-158q-55 0 -55 43q0 41 55 41h158v121q0 109 64 185.5t155 76.5q74 0 153 -31q33 -13 33 -41q0 -17 -11 -29t-28 -12q-3 0 -26 6q-79 23 -119 23q-58 0 -97.5 -51.5t-39.5 -126.5v-121h147 q55 0 55 -41q0 -43 -55 -43h-147v-770h-84z" />
<glyph horiz-adv-x="0" />
<glyph horiz-adv-x="682" />
<glyph unicode=" " />
<glyph unicode="!" d="M692 1153l-37 -668q-2 -31 -11.5 -44t-31.5 -13q-38 0 -41 57l-36 668q-3 21 -3 33q0 34 23.5 57t58.5 23q34 0 57 -23t23 -57q0 -17 -2 -33zM600 174h27q46 0 78 -29.5t32 -72.5t-32 -73t-78 -30h-27q-46 0 -77 30t-31 73t31 72.5t77 29.5z" />
<glyph unicode="&#x22;" d="M299 1237h262l-69 -518q-9 -74 -62 -74q-28 0 -42 17.5t-19 56.5zM668 1237h262l-70 -518q-5 -39 -19 -56.5t-42 -17.5q-53 0 -62 74z" />
<glyph unicode="#" d="M799 729l-19 -258h164q55 0 55 -41q0 -43 -55 -43h-170l-33 -461q-3 -53 -43 -53q-17 0 -30 14t-11 29l2 16l31 455h-186l-31 -461q-3 -28 -13 -40.5t-30 -12.5q-17 0 -29 12t-12 31v16l33 455h-178q-56 0 -56 43q0 41 56 41h182l18 258h-159q-56 0 -56 43q0 41 56 41 h166l32 461q3 51 43 51q17 0 29.5 -13t11.5 -30l-2 -14l-30 -455h186l33 461q3 51 41 51q44 0 41 -57l-33 -455h182q55 0 55 -41q0 -43 -55 -43h-186zM715 729h-187l-18 -258h186z" />
<glyph unicode="$" d="M573 1180v106q0 55 43 55q41 0 41 -55v-106q68 -6 112 -24t101 -62q3 59 43 59q41 0 41 -55v-123q0 -55 -41 -55q-20 0 -30 10t-13 35q-7 55 -82.5 96t-169.5 41q-106 0 -181 -62.5t-75 -150.5q0 -39 19.5 -73.5t52.5 -55.5q50 -31 205 -60q113 -22 164.5 -38.5 t93.5 -45.5q100 -68 100 -204q0 -122 -91.5 -203t-248.5 -98v-244q0 -55 -41 -55q-43 0 -43 55v244q-71 3 -144.5 34.5t-113.5 75.5v-33q0 -55 -41 -55q-43 0 -43 55v162q0 56 43 56q20 0 29 -12t12 -40q6 -66 94.5 -115t202.5 -49q131 0 216 62.5t85 159.5q0 96 -77 145 q-35 20 -75 32t-143 32q-98 19 -150.5 35.5t-92.5 41.5q-44 31 -70 83t-26 110q0 111 82.5 192.5t211.5 96.5z" />
<glyph unicode="%" d="M739 483q106 0 179 -74.5t73 -183.5q0 -101 -74.5 -175.5t-175.5 -74.5q-104 0 -178 75t-74 179t73.5 179t176.5 75zM739 406q-71 0 -121.5 -52t-50.5 -125q0 -72 51 -124t123 -52q70 0 121 51.5t51 122.5q0 75 -50.5 127t-123.5 52zM485 1251q106 0 179 -74.5t73 -181.5 q0 -103 -74.5 -177.5t-175.5 -74.5q-104 0 -177.5 74.5t-73.5 179.5q0 104 73 179t176 75zM485 1174q-70 0 -121 -52.5t-51 -124.5t51 -124t123 -52q69 0 120.5 52t51.5 122q0 75 -50.5 127t-123.5 52zM1014 705l-776 -250q-15 -6 -25 -6q-12 0 -23.5 11.5t-11.5 26.5 q0 30 37 41l776 250q16 4 25 4q13 0 24 -12t11 -27q0 -27 -37 -38z" />
<glyph unicode="&#x26;" d="M805 0l-64 98q-91 -131 -229 -131q-120 0 -208.5 96.5t-88.5 227.5q0 106 60.5 185.5t166.5 111.5q-69 113 -85.5 150t-16.5 81q0 100 74.5 172t177.5 72q69 0 135 -41l21 12q20 10 32 10q15 0 27 -13t12 -30q0 -25 -33 -43l-65 -32q-62 53 -129 53q-66 0 -117 -50 t-51 -114q0 -36 20 -81t70 -124l227 -362q67 124 95 262h88q55 0 55 -41q0 -43 -55 -43h-25q-48 -174 -108 -258l55 -84h78q55 0 55 -41q0 -43 -55 -43h-119zM692 176l-215 338q-82 -19 -130 -79t-48 -144q0 -97 63 -168.5t148 -71.5q54 0 101 32.5t81 92.5z" />
<glyph unicode="'" d="M483 1237h262l-69 -518q-9 -74 -62 -74q-28 0 -42 17.5t-19 56.5z" />
<glyph unicode="(" d="M897 1237q17 0 29 -12t12 -29q0 -7 -6 -22q-205 -363 -205 -682q0 -164 49.5 -327.5t155.5 -354.5q6 -15 6 -23q0 -17 -13 -29t-30 -12q-15 0 -33 20t-53 76q-207 344 -207 656q0 154 58 327t167 342q26 41 40.5 55.5t29.5 14.5z" />
<glyph unicode=")" d="M344 1237q16 0 34 -19.5t52 -76.5q207 -341 207 -656q0 -154 -58 -327t-167 -342q-26 -41 -40.5 -55.5t-29.5 -14.5q-17 0 -29 12t-12 29q0 8 6 23q205 363 205 682q0 166 -49 328t-156 354q-6 15 -6 22q0 17 13 29t30 12z" />
<glyph unicode="*" d="M571 897v285q0 55 43 55q41 0 41 -55v-285l273 88q15 6 30 6t27 -13t12 -28q0 -17 -10 -27t-33 -18l-272 -86l166 -229q14 -24 14 -37q0 -17 -12 -29t-29 -12q-21 0 -41 29l-168 229l-166 -229q-23 -29 -43 -29q-17 0 -29 12t-12 31q0 11 17 35l166 229l-273 86l-8 2 q-12 2 -22.5 14t-10.5 27q0 17 12 29t29 12q6 0 27 -6z" />
<glyph unicode="+" d="M655 535v-414q0 -55 -41 -55q-43 0 -43 55v414h-368q-56 0 -56 43q0 40 56 40h368v412q0 55 43 55q41 0 41 -55v-412h369q57 0 57 -40q0 -43 -57 -43h-369z" />
<glyph unicode="," d="M424 297h272l-297 -543q-15 -29 -29 -40t-34 -11q-25 0 -42.5 17t-17.5 42q0 3 5 23z" />
<glyph unicode="-" d="M1026 528h-823q-56 0 -56 43q0 41 56 41h823q55 0 55 -41q0 -43 -55 -43z" />
<glyph unicode="." d="M604 238h21q60 0 100.5 -38.5t40.5 -95.5q0 -58 -40.5 -96.5t-100.5 -38.5h-21q-60 0 -100.5 39t-40.5 96t40.5 95.5t100.5 38.5z" />
<glyph unicode="/" d="M987 1296l-670 -1425q-10 -21 -20 -29t-25 -8t-28 12t-13 27q0 14 11 33l669 1425q10 21 20 29t25 8t28 -12t13 -27q0 -13 -10 -33z" />
<glyph unicode="0" d="M997 719v-205q0 -243 -106.5 -394t-276.5 -151t-276.5 151t-106.5 394v205q0 244 106.5 395.5t276.5 151.5t276.5 -151.5t106.5 -395.5zM315 709v-183q0 -98 26.5 -195.5t72.5 -168.5q70 -109 200 -109q131 0 201 109q46 70 72 167.5t26 196.5v183q0 99 -26 196.5 t-72 167.5q-70 109 -201 109q-130 0 -200 -109q-46 -71 -72.5 -168.5t-26.5 -195.5z" />
<glyph unicode="1" d="M573 0v1141l-270 -86q-24 -6 -29 -6q-14 0 -26 13t-12 28q0 18 9.5 28t33.5 17l378 118v-1253h-84z" />
<glyph unicode="2" d="M979 0h-807v123l483 455q145 141 188.5 204.5t43.5 132.5q0 106 -88 186.5t-205 80.5q-104 0 -189 -61.5t-110 -153.5q-11 -41 -43 -41q-15 0 -27 11.5t-12 25.5q0 28 18.5 69t47.5 78q57 74 139.5 115t175.5 41q150 0 263.5 -106.5t113.5 -246.5q0 -91 -52 -166.5 t-243 -261.5q-264 -261 -424 -395v-6h727v-84z" />
<glyph unicode="3" d="M766 672q120 -50 188 -137t68 -191q0 -155 -125.5 -265t-302.5 -110q-147 0 -303 84q-94 48 -94 88q0 15 12 27t27 12q14 0 34 -14q147 -113 326 -113q139 0 240.5 86t101.5 205q0 120 -109 207.5t-258 87.5q-55 0 -55 43q0 41 55 41q81 0 114.5 4t64.5 18 q65 28 104 83.5t39 119.5q0 100 -80 167t-199 67q-86 0 -158 -29t-116 -82q-15 -18 -23 -23.5t-20 -5.5q-17 0 -29 12t-12 27t20 40t52 50q125 95 288 95q153 0 257 -91t104 -225q0 -88 -54.5 -162t-146.5 -112q-2 0 -10 -4z" />
<glyph unicode="4" d="M854 0h-84v346h-555v96l467 795h172v-807h70q55 0 55 -43q0 -41 -55 -41h-70v-346zM770 430v723h-49l-426 -723h475z" />
<glyph unicode="5" d="M389 1153v-405q148 61 270 61q157 0 260 -112.5t103 -284.5q0 -194 -117.5 -318.5t-300.5 -124.5q-162 0 -313 101q-94 61 -94 98q0 17 12 29t29 12q15 0 34 -19q149 -137 328 -137q151 0 244.5 101t93.5 262q0 137 -81 223t-210 86q-128 0 -258 -68q-33 -16 -45 -16 q-17 0 -28 12.5t-11 32.5v551h578q57 0 57 -41q0 -43 -57 -43h-494z" />
<glyph unicode="6" d="M362 496q124 249 340 249q140 0 241 -112t101 -268q0 -166 -102.5 -281t-251.5 -115q-181 0 -296 170t-115 439q0 353 223 542q169 146 375 146q66 0 113.5 -21.5t47.5 -50.5q0 -17 -11 -29t-28 -12q-15 0 -34 12q-34 17 -97 17q-117 0 -229.5 -67.5t-187.5 -182.5 q-93 -147 -93 -348q0 -10 4 -88zM375 385q15 -60 18 -68q41 -129 118 -196.5t181 -67.5q114 0 191.5 90t77.5 222q0 122 -77 209.5t-184 87.5q-57 0 -115 -30.5t-108 -86.5q-22 -24 -42.5 -56.5t-59.5 -103.5z" />
<glyph unicode="7" d="M215 1237h764v-133l-334 -1063q-7 -24 -16.5 -33.5t-24.5 -9.5q-17 0 -29 12t-12 29q0 11 4 27l328 1050v37h-682z" />
<glyph unicode="8" d="M768 641q229 -104 229 -311q0 -149 -112.5 -255t-270.5 -106t-270.5 106t-112.5 255q0 204 230 311q-108 56 -158.5 125t-50.5 162q0 138 107 238t255 100t255.5 -100t107.5 -238q0 -94 -50 -163t-159 -124zM614 1182q-117 0 -197.5 -75t-80.5 -183q0 -101 80.5 -171.5 t197.5 -70.5q116 0 197.5 70t81.5 170q0 109 -81 184.5t-198 75.5zM614 600q-126 0 -212.5 -78t-86.5 -192q0 -115 87 -196t212 -81q123 0 211 80.5t88 194.5q0 117 -85.5 194.5t-213.5 77.5z" />
<glyph unicode="9" d="M961 739q-125 -250 -340 -250q-140 0 -241 112.5t-101 268.5q0 166 102.5 281t251.5 115q181 0 296 -170t115 -439q0 -353 -223 -542q-169 -146 -375 -146q-66 0 -113.5 21.5t-47.5 50.5q0 17 11 29t28 12q15 0 34 -12q34 -17 97 -17q117 0 229.5 67.5t187.5 182.5 q93 147 93 348q0 10 -4 88zM948 850q-15 60 -18 68q-41 129 -118 196.5t-181 67.5q-114 0 -191.5 -90t-77.5 -222q0 -122 77 -209.5t184 -87.5q57 0 115 30.5t108 86.5q22 24 42.5 56.5t59.5 103.5z" />
<glyph unicode=":" d="M604 238h21q60 0 100.5 -38.5t40.5 -95.5q0 -58 -40.5 -96.5t-100.5 -38.5h-21q-60 0 -100.5 39t-40.5 96t40.5 95.5t100.5 38.5zM604 854h21q60 0 100.5 -39t40.5 -96t-40.5 -96t-100.5 -39h-21q-60 0 -100.5 39t-40.5 96t40.5 96t100.5 39z" />
<glyph unicode=";" d="M432 297h273l-297 -543q-15 -29 -29 -40t-35 -11q-25 0 -42 17t-17 42q0 7 4 23zM555 854h20q60 0 101 -39t41 -96t-41 -96t-101 -39h-20q-60 0 -100.5 39t-40.5 96t40.5 96t100.5 39z" />
<glyph unicode="&#x3c;" d="M147 575l857 476q17 10 24 10q19 0 33 -21l2 -6q6 -9 6 -18q0 -22 -27 -37l-727 -404l727 -403q27 -15 27 -35q0 -11 -6 -20l-4 -6q-11 -21 -31 -21q-10 0 -27 10z" />
<glyph unicode="=" d="M1069 684h-909q-56 0 -56 43q0 41 56 41h909q55 0 55 -41q0 -43 -55 -43zM1069 389h-909q-56 0 -56 43q0 41 56 41h909q55 0 55 -41q0 -43 -55 -43z" />
<glyph unicode="&#x3e;" d="M1081 575l-856 -475q-17 -10 -24 -10q-23 0 -33 21l-2 6q-6 9 -6 20q0 21 26 35l727 403l-727 404q-26 14 -26 37q0 9 6 18l4 6q10 21 31 21q9 0 26 -10z" />
<glyph unicode="?" d="M659 506v-84q0 -55 -41 -55q-43 0 -43 55v139q179 75 258.5 146.5t79.5 158.5q0 101 -81.5 166.5t-208.5 65.5q-70 0 -128 -15.5t-137 -54.5v-84q0 -55 -41 -55q-43 0 -43 55v139q10 3 32 13t28 12q97 43 159.5 58.5t139.5 15.5q163 0 263.5 -87.5t100.5 -228.5 q0 -114 -73 -191.5t-265 -168.5zM588 174h55q52 0 84.5 -28t32.5 -74q0 -45 -32.5 -74t-84.5 -29h-55q-52 0 -84.5 28.5t-32.5 74.5t32.5 74t84.5 28z" />
<glyph unicode="@" d="M856 297v10q-62 -6 -82 -6q-120 0 -199 73.5t-79 182.5q0 129 102 212.5t258 82.5v96q0 107 -68 176.5t-172 69.5q-139 0 -228 -129t-89 -332v-327q0 -187 96 -332q80 -117 230 -117q66 0 124.5 16.5t90.5 44.5q31 22 39 23q17 0 29 -12t12 -27q0 -47 -97 -88t-211 -41 q-92 0 -161 37.5t-125 116.5q-111 159 -111 379v333q0 233 113 386t286 153q139 0 232.5 -94.5t93.5 -235.5v-567q39 -6 39 -41q0 -43 -55 -43h-68zM856 393v377q-120 0 -198 -59.5t-78 -151.5q0 -77 55.5 -125.5t144.5 -48.5q43 0 76 8z" />
<glyph unicode="A" d="M106 0l431 1153h139l434 -1153h-88l-145 385h-545l-142 -385h-84zM846 469l-230 600h-30l-221 -600h481z" />
<glyph unicode="B" d="M254 0v1153h418q149 0 249.5 -85.5t100.5 -211.5q0 -78 -41.5 -137.5t-132.5 -108.5q260 -92 260 -297q0 -129 -99.5 -221t-238.5 -92h-516zM338 641h301q131 0 215 61t84 156q0 89 -76 150t-188 61h-336v-428zM338 84h426q109 0 184.5 67t75.5 162q0 56 -32 106.5 t-89 84.5q-49 29 -107.5 41t-152.5 12h-305v-473z" />
<glyph unicode="C" d="M1063 868q0 -55 -43 -55q-38 0 -41 49q-6 94 -112 164t-242 70q-170 0 -291 -130t-121 -313v-145q0 -121 60.5 -226.5t163.5 -168t222 -62.5q106 0 190 43.5t167 141.5q18 20 37 20t30 -11t11 -28q0 -32 -78 -104q-155 -146 -357 -146q-102 0 -200 44t-170 116.5 t-116 170t-44 198.5v170q0 94 39.5 193t105.5 169q143 152 351 152q44 0 92.5 -8.5t104.5 -30.5t103 -55.5t85 -90t53 -127.5z" />
<glyph unicode="D" d="M596 0h-383v1153h381h8q195 -3 329 -153t134 -365v-115q0 -143 -61.5 -262.5t-169.5 -188.5t-238 -69zM297 84h307q96 0 184 59t140.5 156t52.5 203v149q0 82 -36 167.5t-97 148.5q-54 54 -114.5 78t-143.5 24h-293v-985z" />
<glyph unicode="E" d="M1022 1069h-684v-428h381v-84h-381v-473h727v-84h-811v1153h768v-84z" />
<glyph unicode="F" d="M1065 1069h-727v-428h383v-84h-383v-557h-84v1153h811v-84z" />
<glyph unicode="G" d="M981 428h-285v84h369v-438q-185 -107 -383 -107q-252 0 -402.5 145t-150.5 388v151q0 109 45 216t121 180q142 133 346 133q45 0 92 -6t103 -24.5t101 -47t80.5 -78t47.5 -113.5q0 -55 -41 -55q-38 0 -41 51q-6 78 -104 133.5t-234 55.5q-171 0 -285 -111 q-67 -63 -107 -154t-40 -182v-149q0 -209 127 -329t348 -120q80 0 143.5 15t149.5 55v307z" />
<glyph unicode="H" d="M342 1153v-512h553v512h84v-1153h-84v557h-553v-557h-84v1153h84z" />
<glyph unicode="I" d="M571 1153h84v-1153h-84v1153z" />
<glyph unicode="J" d="M256 190q154 -139 303 -139q125 0 212 83.5t87 203.5v815h84v-815q0 -152 -113.5 -261.5t-271.5 -109.5q-98 0 -186 42.5t-199 142.5z" />
<glyph unicode="K" d="M1036 0h-98q-77 213 -138 329.5t-128.5 178.5t-167.5 94l-166 -149v-453h-84v1153h84v-594l668 594h116l-549 -489q80 -33 129.5 -68t103.5 -109.5t104.5 -184.5t125.5 -302z" />
<glyph unicode="L" d="M1108 84v-84h-727v1153h84v-1069h643z" />
<glyph unicode="M" d="M1090 0h-84v1069h-17l-321 -723h-95l-325 723h-17v-1069h-84v1153h152l322 -713l315 713h154v-1153z" />
<glyph unicode="N" d="M211 0v1153h106l625 -1032v1032h84v-1153h-106l-625 1032v-1032h-84z" />
<glyph unicode="O" d="M614 1180q142 0 259 -80.5t184 -221.5t67 -313q0 -162 -68.5 -300t-186 -218t-255.5 -80q-140 0 -257.5 80.5t-185 220t-67.5 305.5t67.5 306t185 220.5t257.5 80.5zM614 1096q-116 0 -214 -70.5t-155 -191t-57 -261.5t57.5 -261.5t155.5 -190.5t213 -70q114 0 212 70 t156 189t58 257q0 221 -124 375t-302 154z" />
<glyph unicode="P" d="M254 0v1153h381q163 0 275 -98t112 -240q0 -143 -121 -242.5t-295 -99.5h-268v-473h-84zM338 557h274q134 0 230 76t96 182q0 104 -87 179t-208 75h-305v-512z" />
<glyph unicode="Q" d="M625 -33l-111 -82q86 17 137 17q86 0 168 -31q63 -23 92 -23q56 0 142 56q11 8 24 8q17 0 29 -12t12 -31q0 -31 -74.5 -68t-138.5 -37q-34 0 -114 27q-74 27 -140 27q-46 0 -133.5 -14t-152.5 -33q-16 -4 -21 -4q-17 0 -29 12t-12 31q0 20 23 36l184 134 q-115 25 -208 111t-145.5 212.5t-52.5 269.5q0 166 67.5 306t185 220.5t257.5 80.5t257.5 -80.5t185 -220.5t67.5 -306t-65.5 -303.5t-180 -218t-253.5 -84.5zM614 1096q-116 0 -214 -70.5t-155 -191t-57 -261.5t57.5 -261.5t155.5 -190.5t213 -70q114 0 212 70t156 189 t58 257q0 221 -124 375t-302 154z" />
<glyph unicode="R" d="M1133 0h-99q-135 250 -222 355t-204 159h-270v-514h-84v1153h397q149 0 259 -95t110 -224q0 -198 -285 -297q69 -47 117.5 -98.5t113.5 -151.5t167 -287zM338 598h233q151 0 258 70t107 168q0 92 -87 162.5t-198 70.5h-313v-471z" />
<glyph unicode="S" d="M188 285q0 55 43 55q38 0 41 -49q4 -101 104 -170.5t240 -69.5q143 0 238.5 74.5t95.5 187.5q0 54 -24.5 100t-67.5 72q-36 24 -81.5 37.5t-155.5 32.5q-109 19 -171.5 40t-107.5 54q-51 35 -78.5 91.5t-27.5 121.5q0 135 107.5 226.5t268.5 91.5q93 0 170 -30.5 t121.5 -77t68 -95t23.5 -90.5q0 -56 -41 -56q-40 0 -43 50q-6 92 -89.5 153.5t-203.5 61.5q-126 0 -209 -67.5t-83 -168.5q0 -100 80 -155q40 -27 88.5 -42t142.5 -30q120 -21 175.5 -37t100.5 -45q60 -37 93.5 -100.5t33.5 -141.5q0 -149 -119 -245.5t-303 -96.5 q-111 0 -211.5 47t-159.5 120.5t-59 150.5z" />
<glyph unicode="T" d="M147 1153h934v-84h-424v-1069h-84v1069h-426v84z" />
<glyph unicode="U" d="M1022 1153v-774q0 -174 -118 -293t-290 -119q-173 0 -290 118.5t-117 293.5v774h84v-774q0 -138 93.5 -233t229.5 -95q135 0 229.5 95t94.5 233v774h84z" />
<glyph unicode="V" d="M1124 1153l-460 -1153h-117l-443 1153h89l413 -1069h6l428 1069h84z" />
<glyph unicode="W" d="M1112 1153l-137 -1153h-131l-230 819l-235 -819h-129l-133 1153h84l125 -1059l229 803h127l223 -803l127 1059h80z" />
<glyph unicode="X" d="M1122 0h-108l-404 522l-401 -522h-103l451 590l-432 563h106l383 -496l377 496h107l-432 -563z" />
<glyph unicode="Y" d="M152 1153h100l369 -549l360 549h94l-416 -633v-520h-84v520z" />
<glyph unicode="Z" d="M248 1153h715v-119l-672 -942v-8h727v-84h-807v121l672 942v6h-635v84z" />
<glyph unicode="[" d="M657 1153v-1323h199q55 0 55 -41q0 -43 -55 -43h-283v1491h283q55 0 55 -41q0 -43 -55 -43h-199z" />
<glyph unicode="\" d="M317 1331l670 -1425q10 -17 10 -33q0 -15 -13 -27t-28 -12t-25 8t-20 29l-669 1425q-11 22 -11 33q0 15 13 27t30 12q25 0 43 -37z" />
<glyph unicode="]" d="M571 -170v1323h-198q-56 0 -56 41q0 43 56 43h282v-1491h-282q-56 0 -56 41q0 43 56 43h198z" />
<glyph unicode="^" d="M614 1260l365 -457q18 -21 18 -37q0 -17 -12 -29t-29 -12q-22 0 -41 27l-301 378l-301 -378q-19 -27 -41 -27q-17 0 -29 12t-12 29q0 15 19 37z" />
<glyph unicode="_" d="M1253 -154v-102h-1278v102h1278z" />
<glyph unicode="`" d="M397 1290l234 -205l14 -16q10 -10 10 -22q0 -19 -12 -31t-31 -12q-16 0 -37 18l-233 205q-25 22 -25 41q0 17 12 29t29 12q14 0 39 -19z" />
<glyph unicode="a" d="M858 0v137q-182 -170 -391 -170q-143 0 -231.5 72.5t-88.5 189.5q0 133 120.5 216t312.5 83q70 0 128.5 -9t149.5 -34v146q0 75 -70 121.5t-182 46.5q-55 0 -112 -12.5t-179 -49.5q-16 -4 -20 -4q-15 0 -27 12t-12 29q0 31 35 43q85 29 174.5 47.5t146.5 18.5 q142 0 236 -71.5t94 -180.5v-631h-84zM858 229v185q-123 30 -262 30q-163 0 -264 -60t-101 -157q0 -80 64 -128t170 -48q109 0 200 41t193 137z" />
<glyph unicode="b" d="M295 0h-84v1237h84v-565q77 109 166 160t203 51q187 0 315.5 -131t128.5 -322q0 -192 -130 -327.5t-314 -135.5q-226 0 -369 213v-180zM659 799q-152 0 -258 -109t-106 -264q0 -156 106 -265.5t258 -109.5q149 0 257 109t108 260q0 160 -105.5 269.5t-259.5 109.5z" />
<glyph unicode="c" d="M1047 610q0 -55 -41 -55q-20 0 -30 11.5t-13 37.5q-6 82 -101.5 138.5t-224.5 56.5q-169 0 -275 -105t-106 -274q0 -161 107 -265t274 -104q223 0 383 148q20 20 37 20q15 0 27 -12t12 -27q0 -40 -88 -100q-163 -113 -375 -113q-201 0 -331 127t-130 324q0 203 133 334 t338 131q54 0 111 -12t120 -40t110.5 -85t62.5 -136z" />
<glyph unicode="d" d="M944 0v182q-144 -215 -373 -215q-120 0 -222 62t-161 167.5t-59 229.5q0 189 129.5 323t312.5 134q226 0 373 -213v567h84v-1237h-84zM578 799q-152 0 -258.5 -109t-106.5 -264q0 -157 106.5 -266t260.5 -109q151 0 257.5 108.5t106.5 262.5q0 160 -105.5 268.5 t-260.5 108.5z" />
<glyph unicode="e" d="M1065 408h-852q22 -161 135 -259t279 -98q96 0 196.5 31t161.5 80q20 14 33 14q15 0 27 -12t12 -29q0 -35 -68.5 -75t-171 -66.5t-192.5 -26.5q-207 0 -351.5 139t-144.5 338q0 186 135 312.5t332 126.5q147 0 262.5 -73.5t171.5 -201.5q22 -50 28.5 -89.5t6.5 -110.5z M213 492h766q-25 139 -129.5 223t-253.5 84t-252 -83t-131 -224z" />
<glyph unicode="f" d="M471 0v770h-180q-55 0 -55 43q0 41 55 41h180v125q0 113 88.5 185.5t226.5 72.5q136 0 285 -27q37 -9 37 -41q0 -19 -12 -30t-31 -11q-1 0 -8 1q-31 4 -94 12q-110 12 -181 12q-101 0 -164 -48.5t-63 -125.5v-125h387q55 0 55 -41q0 -43 -55 -43h-387v-770h-84z" />
<glyph unicode="g" d="M901 854h84v-911q0 -118 -88 -213q-105 -111 -250 -111h-233q-56 0 -56 43q0 41 56 41h237q104 0 177 74t73 178v264q-69 -102 -154.5 -150.5t-195.5 -48.5q-173 0 -297.5 127.5t-124.5 305.5t124 304t298 126q112 0 196.5 -48t153.5 -151v170zM557 799 q-145 0 -244.5 -100.5t-99.5 -245.5q0 -146 100.5 -247.5t243.5 -101.5q142 0 243 101t101 244q0 149 -99 249.5t-245 100.5z" />
<glyph unicode="h" d="M338 1237v-526q78 94 149.5 133t165.5 39q142 0 234 -81t92 -206v-596h-84v590q0 92 -78 155q-36 30 -74.5 42t-99.5 12q-86 0 -142.5 -33.5t-140.5 -132.5l-22 -27v-606h-84v1237h84z" />
<glyph unicode="i" d="M571 0v770h-241q-56 0 -56 43q0 41 56 41h325v-854h-84zM651 1278v-213h-121v213h121z" />
<glyph unicode="j" d="M854 770h-494q-55 0 -55 43q0 41 55 41h578v-911q0 -143 -89 -233.5t-228 -90.5h-265q-55 0 -55 43q0 41 55 41h262q102 0 169 68t67 172v827zM848 1278v-213h-121v213h121z" />
<glyph unicode="k" d="M295 0v1237h84v-768l455 385h124l-421 -352l507 -502h-118l-453 449l-94 -80v-369h-84z" />
<glyph unicode="l" d="M571 0v1153h-239q-56 0 -56 43q0 41 56 41h323v-1237h-84z" />
<glyph unicode="m" d="M1090 0h-82v653q0 58 -41 102t-95 44q-55 0 -104.5 -39t-108.5 -129v-631h-81v647q0 60 -40.5 106t-93.5 46q-54 0 -105 -40t-110 -128v-631h-82v854h82v-106q52 73 101 104t114 31q132 0 199 -146q61 77 115 111.5t116 34.5q89 0 152.5 -65t63.5 -156v-662z" />
<glyph unicode="n" d="M342 854v-141q89 98 157 134t163 36q136 0 228.5 -80t92.5 -199v-604h-84v590q0 89 -78 155q-37 31 -72.5 42.5t-95.5 11.5q-112 0 -194 -68q-38 -28 -117 -129v-602h-84v854h84z" />
<glyph unicode="o" d="M614 883q197 0 332 -134t135 -329q0 -123 -62.5 -227.5t-170 -165t-234.5 -60.5q-195 0 -331 133.5t-136 325.5q0 189 136 323t331 134zM614 799q-160 0 -271.5 -109t-111.5 -264q0 -157 111.5 -266t271.5 -109q158 0 270.5 108.5t112.5 260.5q0 161 -110.5 270 t-272.5 109z" />
<glyph unicode="p" d="M211 -381v1235h84v-168q82 106 166 151.5t201 45.5q190 0 318 -123.5t128 -306.5t-128.5 -308t-317.5 -125q-118 0 -207 48t-160 149v-598h-84zM659 799q-152 0 -258 -100.5t-106 -245.5q0 -146 106 -247.5t258 -101.5q151 0 258 101.5t107 243.5q0 149 -105 249.5 t-260 100.5z" />
<glyph unicode="q" d="M1028 854v-1235h-84v598q-71 -101 -160 -149t-209 -48q-189 0 -317.5 125t-128.5 308t129 306.5t320 123.5q118 0 206 -47.5t160 -149.5v168h84zM578 799q-154 0 -259.5 -100t-105.5 -246t105.5 -247.5t259.5 -101.5q152 0 259 101t107 244q0 149 -105.5 249.5 t-260.5 100.5z" />
<glyph unicode="r" d="M508 854v-209q142 128 229 178.5t166 50.5q84 0 158 -63q47 -39 47 -63q0 -19 -12 -31t-31 -12q-17 0 -33 16q-73 70 -135 70q-69 0 -144.5 -49.5t-244.5 -204.5v-537h-84v854h84z" />
<glyph unicode="s" d="M254 281q18 0 29.5 -12.5t11.5 -32.5v-15q0 -70 92 -120t223 -50q135 0 225.5 53.5t90.5 135.5q0 35 -24.5 70.5t-65.5 58.5q-71 39 -222 55q-114 12 -168.5 25.5t-97.5 39.5q-43 28 -68.5 71.5t-25.5 90.5q0 100 99.5 166t250.5 66q159 0 266 -80q46 -34 71 -75t27 -75 v-4q0 -46 -40 -49q-37 0 -43 47q-8 69 -82 110.5t-191 41.5q-114 0 -190 -44t-76 -110q0 -54 66 -92q35 -22 70 -30t167 -21q173 -19 266 -80q48 -33 75.5 -81.5t27.5 -102.5q0 -117 -114.5 -194t-287.5 -77q-196 0 -317 103q-82 70 -88 152v8q0 51 43 51z" />
<glyph unicode="t" d="M381 854h450q56 0 56 -41q0 -43 -56 -43h-450v-547q0 -78 62 -125t167 -47q86 0 183 23.5t157 58.5q19 12 33 12q15 0 27 -13t12 -28q0 -29 -65 -61.5t-161.5 -54t-181.5 -21.5q-145 0 -231 68.5t-86 183.5v551h-152q-57 0 -57 43q0 41 57 41h152v244q0 55 43 55 q22 0 31.5 -13t9.5 -42v-244z" />
<glyph unicode="u" d="M983 854v-854h-84v135q-171 -168 -373 -168q-123 0 -197.5 73.5t-74.5 195.5v618h84v-618q0 -77 54 -131t132 -54q205 0 375 185v618h84z" />
<glyph unicode="v" d="M1065 854l-377 -854h-143l-381 854h92l344 -770h39l338 770h88z" />
<glyph unicode="w" d="M1092 854l-189 -854h-102l-187 530l-182 -530h-104l-193 854h82l166 -739l176 522h105l182 -522l160 739h86z" />
<glyph unicode="x" d="M254 854l360 -350l369 350h113l-422 -405l465 -449h-119l-406 389l-409 -389h-115l465 449l-420 405h119z" />
<glyph unicode="y" d="M1081 854l-606 -1235h-84l187 381l-426 854h96l377 -762l370 762h86z" />
<glyph unicode="z" d="M1001 0h-765v74l616 696h-598v84h717v-74l-621 -696h651v-84z" />
<glyph unicode="{" d="M659 1022v-354q0 -63 -19.5 -101t-70.5 -75q51 -37 70.5 -75.5t19.5 -101.5v-354q0 -53 32 -90t81 -41q30 -3 41.5 -12.5t11.5 -30.5q0 -19 -13 -30t-36 -11q-85 0 -143 62t-58 153v354q0 56 -33.5 93t-88.5 41q-50 3 -50 43t50 43q56 5 89 40.5t33 92.5v354q0 91 58 153 t143 62q23 0 36 -11t13 -30q0 -21 -11.5 -30.5t-41.5 -12.5q-49 -4 -81 -41t-32 -90z" />
<glyph unicode="|" d="M655 1182v-1381q0 -55 -41 -55t-41 55v1381q0 55 41 55t41 -55z" />
<glyph unicode="}" d="M569 -39v354q0 63 19.5 101.5t70.5 75.5q-51 37 -70.5 75t-19.5 101v354q0 53 -31.5 90t-80.5 41q-30 3 -42 12.5t-12 30.5q0 19 13.5 30t36.5 11q85 0 142.5 -62t57.5 -153v-354q0 -56 34 -92.5t89 -40.5q49 -3 49 -43t-49 -43q-56 -5 -89.5 -41t-33.5 -93v-354 q0 -91 -57.5 -153t-142.5 -62q-23 0 -36.5 11t-13.5 30q0 21 12 30.5t42 12.5q49 4 80.5 41t31.5 90z" />
<glyph unicode="~" d="M999 676q17 0 29 -12t12 -27q0 -22 -51 -82q-101 -121 -192 -121q-50 0 -95.5 25.5t-142.5 107.5q-77 62 -125 62q-40 0 -69.5 -23.5t-96.5 -109.5q-19 -25 -41 -25q-15 0 -27 12t-12 27q0 26 58 92q53 61 95 86t93 25q49 0 85.5 -19t121.5 -86q67 -55 96 -72.5t54 -17.5 q73 0 149 107q23 33 33.5 42t25.5 9z" />
<glyph unicode="&#xa0;" />
<glyph unicode="&#xa1;" d="M537 -330l36 668q2 31 11.5 44t31.5 13q38 0 41 -57l37 -668q2 -14 2 -32q0 -34 -23.5 -57t-58.5 -23q-34 0 -56.5 23t-22.5 57q0 16 2 32zM629 649h-27q-46 0 -78 30t-32 73t32 72.5t78 29.5h27q46 0 77 -29.5t31 -72.5t-31 -73t-77 -30z" />
<glyph unicode="&#xa2;" d="M573 1016v219q0 55 43 55q41 0 41 -55v-217q59 0 117 -20t96 -54q9 35 41 35q43 0 43 -51v-125q0 -58 -41 -58q-35 0 -41 48q-9 66 -73 105.5t-162 39.5q-140 0 -231 -84.5t-91 -216.5q0 -129 89.5 -214t224.5 -85q150 0 256 86q21 16 37 16q17 0 28 -11t11 -30 q0 -27 -47 -58.5t-119 -54.5t-138 -26v-231q0 -56 -41 -56q-43 0 -43 56v231q-149 17 -245.5 124t-96.5 253q0 95 44 176.5t122 134.5q69 46 176 68z" />
<glyph unicode="&#xa3;" d="M373 84h516q39 0 64 27.5t28 76.5q6 48 43 48q19 0 30 -13t11 -33q0 -78 -50.5 -134t-121.5 -56h-662q-55 0 -55 43q0 18 12 28.5t33 10.5q72 3 128.5 115.5t56.5 253.5q0 47 -9 108h-213q-55 0 -55 43q0 41 55 41h193q-55 173 -55 248q0 122 84 207.5t204 85.5 q112 0 201 -80q63 -57 63 -90q0 -13 -13 -26t-27 -13q-18 0 -37 24q-82 101 -185 101q-83 0 -144.5 -62t-61.5 -147q0 -36 8.5 -75.5t38.5 -143.5q1 -1 2 -5t2.5 -11.5t3.5 -12.5h203q55 0 55 -43q0 -41 -55 -41h-185q10 -72 10 -117q0 -215 -116 -358z" />
<glyph unicode="&#xa4;" d="M408 332l-117 -115q-20 -22 -37 -22q-19 0 -31 12t-12 29q0 18 22 40l115 115q-72 97 -72 207q0 120 70 209l-113 115q-22 20 -22 39q0 17 12 28.5t29 11.5t39 -22l115 -113q90 72 208 72t209 -72l113 113q22 22 41 22q17 0 29 -12t12 -31q0 -10 -3.5 -16t-17.5 -20 l-112 -115q69 -97 69 -207q0 -120 -71 -209l112 -115q21 -21 21 -40q0 -17 -12 -29t-29 -12q-20 0 -39 22l-115 115q-97 -72 -207 -72q-113 0 -206 72zM614 854q-104 0 -179 -75t-75 -179q0 -106 75 -181t179 -75q103 0 178.5 74.5t75.5 177.5q0 107 -74 182.5t-180 75.5z " />
<glyph unicode="&#xa5;" d="M250 1153l364 -549l366 549h96l-392 -590h242q24 0 33.5 -8t9.5 -29q0 -22 -9 -30.5t-34 -8.5h-269v-122h269q23 0 33 -8.5t10 -28.5q0 -22 -10 -30.5t-33 -8.5h-269v-289h-84v289h-266q-25 0 -35 8.5t-10 30.5q0 20 10 28.5t35 8.5h266v122h-266q-25 0 -35 8.5t-10 30.5 q0 21 9.5 29t35.5 8h238l-391 590h96z" />
<glyph unicode="&#xa6;" d="M655 1182v-547q0 -55 -41 -55t-41 55v547q0 55 41 55t41 -55zM655 348v-547q0 -55 -41 -55t-41 55v547q0 55 41 55t41 -55z" />
<glyph unicode="&#xa7;" d="M215 -45h422q81 0 135.5 44.5t54.5 109.5q0 54 -60 110t-208 139l-133 74q-150 85 -220.5 157.5t-70.5 143.5q0 69 58 116t153 54q-27 47 -27 94q0 97 78.5 167.5t184.5 70.5h434v-82h-428q-75 0 -131 -46.5t-56 -109.5q0 -57 61.5 -110t244.5 -154l114 -63 q144 -78 208.5 -147t64.5 -144q0 -79 -74 -131q-47 -31 -135 -41q26 -45 26 -101q0 -100 -77.5 -166.5t-194.5 -66.5h-424v82zM786 594l-131 74q-100 55 -151 88t-92 69q-12 -2 -37 -2q-65 0 -108.5 -26t-43.5 -66q0 -88 256 -233l127 -72q163 -91 213 -141q8 4 37 6 q69 2 109.5 25t40.5 61q0 44 -60 103.5t-160 113.5z" />
<glyph unicode="&#xa8;" d="M389 1251q43 0 73 -30.5t30 -73.5q0 -40 -31 -70t-72 -30t-71.5 30.5t-30.5 71.5t30.5 71.5t71.5 30.5zM842 1251q43 0 72.5 -30.5t29.5 -73.5q0 -40 -30.5 -70t-71.5 -30t-72 30.5t-31 71.5t31 71.5t72 30.5z" />
<glyph unicode="&#xa9;" d="M854 733q0 -41 -37 -41q-31 0 -37 39q-5 48 -57 82q-53 35 -123 35q-86 0 -150 -67q-63 -66 -63 -163v-79q0 -97 69 -167q69 -71 162 -71q102 0 185 96q15 17 33 17q13 0 24 -11q10 -10 10 -24q0 -27 -47 -68q-90 -84 -205 -84q-120 0 -212 92q-93 93 -93 213v93 q0 123 84 210t201 87q44 0 90 -12q49 -13 99 -57q52 -46 67 -120zM614 1184q250 0 428 -178q179 -179 179 -428q0 -257 -179 -433t-436 -176q-246 0 -423 179q-177 178 -177 430q0 250 178 428t430 178zM614 1100q-217 0 -370 -153q-154 -154 -154 -369t153 -370t363 -155 q224 0 377 153q154 154 154 372q0 214 -154 368t-369 154z" />
<glyph unicode="&#xaa;" d="M815 578h-76v53q-63 -34 -111 -47t-108 -13q-91 0 -147 45t-56 117q0 87 77 143t196 56q52 0 149 -19v91q0 43 -36.5 69.5t-96.5 26.5t-155 -39q-16 -8 -29 -8t-24 12t-11 27q0 24 29 38q112 46 194 46q89 0 147 -48.5t58 -123.5v-426zM739 717v121q-61 22 -145 22 q-88 0 -144.5 -37t-56.5 -94q0 -37 35 -59.5t92 -22.5q112 0 219 70z" />
<glyph unicode="&#xab;" d="M129 428l426 403q23 23 43 23q17 0 29 -12t12 -29q0 -15 -23 -41l-292 -344l292 -346q23 -26 23 -41q0 -17 -12 -29t-29 -12t-43 23zM598 428l426 403q23 23 43 23q17 0 29 -12t12 -29q0 -15 -23 -41l-292 -344l292 -346q23 -26 23 -41q0 -17 -12 -29t-29 -12t-43 23z " />
<glyph unicode="&#xac;" d="M997 813h-794q-56 0 -56 43q0 41 56 41h878v-498q0 -55 -43 -55q-41 0 -41 55v414z" />
<glyph unicode="&#xad;" d="M1026 528h-823q-56 0 -56 43q0 41 56 41h823q55 0 55 -41q0 -43 -55 -43z" />
<glyph unicode="&#xae;" d="M913 246h-79q-115 243 -228 282h-129v-282h-74v661h234q94 0 154.5 -53.5t60.5 -136.5q0 -58 -38.5 -102.5t-104.5 -63.5q52 -33 114.5 -129t89.5 -176zM477 602h115q86 0 136 32t50 87q0 50 -40 81.5t-103 31.5h-158v-232zM614 1184q123 0 235.5 -48t194 -129.5 t129.5 -193.5t48 -235q0 -167 -81.5 -307t-223 -221t-310.5 -81q-161 0 -299.5 82.5t-219.5 223t-81 303.5q0 164 81.5 304t221.5 221t305 81zM614 1100q-107 0 -203.5 -41t-167 -111t-112 -167t-41.5 -203q0 -141 70 -262t189 -192t257 -71q146 0 268 69.5t192.5 190.5 t70.5 265q0 141 -70.5 261.5t-191 190.5t-261.5 70z" />
<glyph unicode="&#xaf;" d="M856 1098h-483q-56 0 -56 41t56 41h483q55 0 55 -41t-55 -41z" />
<glyph unicode="&#xb0;" d="M614 1303q123 0 210 -87t87 -210t-87 -210t-210 -87q-124 0 -210.5 87.5t-86.5 213.5q0 120 87.5 206.5t209.5 86.5zM614 1219q-88 0 -150.5 -62.5t-62.5 -148.5q0 -89 62 -152t151 -63q88 0 150.5 62.5t62.5 150.5t-62.5 150.5t-150.5 62.5z" />
<glyph unicode="&#xb1;" d="M655 616v-331q0 -56 -41 -56q-43 0 -43 56v331h-368q-56 0 -56 41t56 41h368v330q0 55 43 55q41 0 41 -55v-330h369q57 0 57 -41t-57 -41h-369zM203 82h823q55 0 55 -41t-55 -41h-823q-56 0 -56 41t56 41z" />
<glyph unicode="&#xb2;" d="M829 530h-471v88l271 252q77 77 100 110t23 67q0 54 -44.5 93.5t-103.5 39.5q-53 0 -95.5 -30t-55.5 -77q-9 -33 -37 -33q-14 0 -24.5 11t-10.5 24q0 39 39 88q71 90 184 90q89 0 155 -61.5t66 -144.5q0 -47 -25 -88.5t-98 -115.5t-253 -239h380v-74z" />
<glyph unicode="&#xb3;" d="M733 913q119 -73 119 -180q0 -90 -73 -154.5t-175 -64.5q-76 0 -154.5 37t-78.5 72q0 13 10.5 23.5t24.5 10.5t26 -10q84 -59 172 -59q70 0 122 43t52 102q0 62 -53.5 105.5t-134.5 44.5q-43 3 -43 37q0 20 18 32q6 4 58 4q57 0 94 31.5t37 77.5q0 49 -40 82t-100 33 q-91 0 -141 -56q-15 -20 -33 -20q-15 0 -26 10.5t-11 24.5q0 38 70 76t141 38q91 0 152 -54t61 -134q0 -90 -94 -152z" />
<glyph unicode="&#xb4;" d="M887 1227l-234 -205q-23 -18 -39 -18q-17 0 -29 12t-12 31q0 10 4.5 17t20.5 21l233 205q24 19 39 19q17 0 29 -12t12 -31q0 -18 -24 -39z" />
<glyph unicode="&#xb6;" d="M895 -127q-49 -1 -73 -1h-13q1 1 4 1v1280h-147v-1280l4 -1h-14l-74 1v659q-134 8 -228 50q-89 40 -140.5 107t-51.5 142v97q0 138 124 223.5t324 85.5h410q51 0 51 -41q0 -43 -51 -43h-125v-1280zM582 629v514q-119 -12 -198 -74.5t-79 -144.5v-76q0 -82 79 -144.5 t198 -74.5z" />
<glyph unicode="&#xb7;" d="M604 713h21q60 0 100.5 -38t40.5 -95q0 -58 -40.5 -97t-100.5 -39h-21q-60 0 -100.5 39.5t-40.5 96.5t40.5 95t100.5 38z" />
<glyph unicode="&#xb8;" d="M561 0h78v-96q63 -2 98 -34.5t35 -90.5q0 -60 -45 -96.5t-117 -36.5q-71 0 -143 37q-21 10 -29 20t-8 25q0 17 12 28t29 11q9 0 31 -11q58 -32 104 -32q40 0 65 16.5t25 42.5q0 51 -94 51h-41v166z" />
<glyph unicode="&#xb9;" d="M580 530v623l-134 -43q-16 -4 -18 -4q-12 0 -23.5 12t-11.5 25q0 17 10 25t58.5 24.5t167.5 53.5q16 4 24 7v-723h-73z" />
<glyph unicode="&#xba;" d="M616 1182q126 0 214 -88t88 -215q0 -121 -89.5 -209t-212.5 -88q-124 0 -212.5 88t-88.5 213q0 123 88.5 211t212.5 88zM616 1106q-94 0 -159.5 -65.5t-65.5 -157.5q0 -93 66.5 -159.5t158.5 -66.5t159 65.5t67 156.5q0 95 -65.5 161t-160.5 66z" />
<glyph unicode="&#xbb;" d="M637 426l-424 -403q-23 -23 -43 -23q-17 0 -29 12t-12 29q0 15 23 41l290 344l-290 346q-23 26 -23 41q0 17 12 29t29 12t43 -23zM1108 426l-424 -403q-23 -23 -43 -23q-17 0 -29 12t-12 29q0 15 23 41l290 344l-290 346q-23 26 -23 41q0 17 12 29t29 12t43 -23z" />
<glyph unicode="&#xbc;" d="M223 530v623l-133 -43q-16 -4 -18 -4q-12 0 -23.5 12t-11.5 25q0 17 10 25t58.5 24.5t167.5 53.5q16 4 24 7v-723h-54h-20zM1008 977l-719 -848q-20 -25 -37 -25t-29 12t-12 29q0 14 18 35l717 848q22 25 37 25q17 0 29 -12t12 -29q0 -11 -16 -35zM1044 0v190h-305v70 l262 447h117v-443h27q43 0 43 -37t-51 -37h-19v-190v0h-1h-1h-1h-1h-1h-1h-1h-2h-1h-2h-1h-2h-2h-2h-3h-2h-2h-3h-3h-3h-3h-3h-4h-4h-5h-5h-6h-9zM1044 264v369h-4l-219 -369h223z" />
<glyph unicode="&#xbd;" d="M993 977l-719 -848q-20 -25 -36 -25q-17 0 -29 12t-12 29q0 14 18 35l717 848q22 25 37 25q17 0 29 -12t12 -29q0 -10 -17 -35zM236 530v623l-134 -43q-16 -4 -18 -4q-12 0 -23.5 12t-11.5 25q0 17 10 25t58.5 24.5t167.5 53.5q16 4 24 7v-723h-54h-19zM1174 0h-472v88 l271 252q77 77 100 109.5t23 66.5q0 54 -44.5 93.5t-103.5 39.5q-53 0 -95.5 -29.5t-55.5 -76.5q-9 -33 -37 -33q-14 0 -24.5 11t-10.5 24q0 39 39 88q71 90 184 90q89 0 155 -62t66 -145q0 -47 -25 -88.5t-97.5 -115t-253.5 -238.5h381v-74z" />
<glyph unicode="&#xbe;" d="M1044 0v190h-305v70l262 447h117v-443h27q43 0 43 -37t-51 -37h-19v-190h-98h24zM1044 264v369h-4l-219 -369h223zM375 913q119 -73 119 -180q0 -90 -73 -154.5t-175 -64.5q-76 0 -155 37t-79 72q0 13 10.5 23.5t24.5 10.5q15 0 27 -10q84 -59 172 -59q70 0 122 43 t52 102q0 62 -54 105.5t-135 44.5q-43 3 -43 37q0 19 19 32q6 4 57 4q57 0 94 31.5t37 77.5q0 50 -39.5 82.5t-99.5 32.5q-91 0 -141 -56q-15 -20 -33 -20q-15 0 -26 10.5t-11 24.5q0 38 70 76t141 38q91 0 152 -54t61 -134q0 -90 -94 -152zM1006 977l-719 -848 q-20 -25 -37 -25t-29 12t-12 29q0 14 18 35l717 848q22 25 37 25q17 0 29 -12t12 -29q0 -11 -16 -35z" />
<glyph unicode="&#xbf;" d="M870 -205l84 -53q-21 -10 -59 -27q-97 -43 -159 -58t-140 -15q-163 0 -264 87t-101 228q0 114 73 191.5t265 168.5v84q0 56 41 56q43 0 43 -56v-139q-179 -74 -258.5 -145.5t-79.5 -159.5q0 -101 81.5 -166t209.5 -65q69 0 126 14.5t138 54.5zM641 649h-55 q-52 0 -84.5 29t-32.5 74t32.5 73.5t84.5 28.5h55q52 0 84.5 -28t32.5 -74t-32.5 -74.5t-84.5 -28.5z" />
<glyph unicode="&#xc0;" d="M418 1597l233 -204l15 -17q10 -10 10 -22q0 -19 -12 -31t-31 -12q-16 0 -37 18l-234 205q-24 21 -24 41q0 17 12 29t29 12q14 0 39 -19zM106 0l431 1153h139l434 -1153h-88l-145 385h-545l-142 -385h-84zM846 469l-230 600h-30l-221 -600h481z" />
<glyph unicode="&#xc1;" d="M760 1534l-234 -205q-23 -18 -39 -18q-17 0 -29 12t-12 31q0 16 25 39l234 204q24 19 38 19q17 0 29 -12t12 -31q0 -18 -24 -39zM106 0l431 1153h139l434 -1153h-88l-145 385h-545l-142 -385h-84zM846 469l-230 600h-30l-221 -600h481z" />
<glyph unicode="&#xc2;" d="M612 1616l271 -221q26 -20 26 -43q0 -17 -12 -29t-29 -12q-15 0 -37 16l-219 180l-219 -180q-22 -16 -37 -16q-17 0 -29 12t-12 29q0 22 27 41zM106 0l431 1153h139l434 -1153h-88l-145 385h-545l-142 -385h-84zM846 469l-230 600h-30l-221 -600h481z" />
<glyph unicode="&#xc3;" d="M836 1542q16 0 28.5 -12t12.5 -29q0 -12 -9 -24.5t-37 -38.5q-74 -74 -141 -74q-34 0 -69.5 13.5t-96.5 49.5q-53 35 -88 35q-30 0 -52 -14t-67 -62q-13 -16 -34 -16q-17 0 -29 11t-12 28q0 22 39 61q44 41 79.5 58.5t73.5 17.5q31 0 56.5 -9t74.5 -38q61 -34 81 -42.5 t40 -8.5q26 0 48.5 15t68.5 63q16 16 33 16zM106 0l431 1153h139l434 -1153h-88l-145 385h-545l-142 -385h-84zM846 469l-230 600h-30l-221 -600h481z" />
<glyph unicode="&#xc4;" d="M383 1559q42 0 72 -31t30 -74q0 -40 -30.5 -70t-71.5 -30t-71.5 30.5t-30.5 71.5t30.5 72t71.5 31zM836 1559q42 0 72 -31t30 -74q0 -40 -30.5 -70t-71.5 -30t-72 30.5t-31 71.5t31 72t72 31zM106 0l431 1153h139l434 -1153h-88l-145 385h-545l-142 -385h-84zM846 469 l-230 600h-30l-221 -600h481z" />
<glyph unicode="&#xc5;" d="M567 1661q80 0 135.5 -54.5t55.5 -133.5q0 -74 -56.5 -128.5t-134.5 -54.5t-134 55t-56 132q0 75 56 129.5t134 54.5zM567 1593q-51 0 -87 -34.5t-36 -81.5q0 -49 36 -84t87 -35t87 34.5t36 82.5q0 49 -36 83.5t-87 34.5zM106 0l431 1153h139l434 -1153h-88l-145 385 h-545l-142 -385h-84zM846 469l-230 600h-30l-221 -600h481z" />
<glyph unicode="&#xc6;" d="M212 0h-84l318 1153h721v-84h-475v-426h242v-84h-242v-475h516v-84h-600v387h-289zM608 471v598h-102l-164 -598h266z" />
<glyph unicode="&#xc7;" d="M614 20l35 -53v-63q63 -2 98 -34.5t35 -90.5q0 -60 -44.5 -96.5t-116.5 -36.5q-30 0 -72 11t-72 26q-21 10 -29 20t-8 25q0 17 12 28t29 11q9 0 31 -11q60 -32 104 -32q40 0 65.5 16.5t25.5 42.5q0 51 -95 51h-41v141q-22 6 41 44zM1063 868q0 -55 -43 -55q-38 0 -41 49 q-6 94 -112 164t-242 70q-170 0 -291 -130t-121 -313v-145q0 -121 60.5 -226.5t163.5 -168t222 -62.5q106 0 190 43.5t167 141.5q18 20 37 20t30 -11t11 -28q0 -32 -78 -104q-155 -146 -357 -146q-102 0 -200 44t-170 116.5t-116 170t-44 198.5v170q0 94 39.5 193t105.5 169 q143 152 351 152q44 0 92.5 -8.5t104.5 -30.5t103 -55.5t85 -90t53 -127.5z" />
<glyph unicode="&#xc8;" d="M440 1597l234 -204l14 -17q10 -10 10 -22q0 -19 -12 -31t-31 -12q-16 0 -37 18l-233 205q-25 22 -25 41q0 17 12 29t29 12q14 0 39 -19zM1022 1069h-684v-428h381v-84h-381v-473h727v-84h-811v1153h768v-84z" />
<glyph unicode="&#xc9;" d="M797 1534l-234 -205q-23 -18 -39 -18q-17 0 -29 12t-12 31q0 16 25 39l233 204q24 19 39 19q17 0 29 -12t12 -31q0 -18 -24 -39zM1022 1069h-684v-428h381v-84h-381v-473h727v-84h-811v1153h768v-84z" />
<glyph unicode="&#xca;" d="M596 1616l270 -221q27 -21 27 -43q0 -17 -12 -29t-29 -12q-15 0 -37 16l-219 180l-219 -180q-22 -16 -37 -16q-17 0 -29 12t-12 29q0 22 27 41zM1022 1069h-684v-428h381v-84h-381v-473h727v-84h-811v1153h768v-84z" />
<glyph unicode="&#xcb;" d="M371 1559q42 0 72 -31t30 -74q0 -40 -30.5 -70t-71.5 -30t-72 30.5t-31 71.5t31 72t72 31zM823 1559q43 0 73 -31t30 -74q0 -40 -31 -70t-72 -30t-71.5 30.5t-30.5 71.5t30.5 72t71.5 31zM1022 1069h-684v-428h381v-84h-381v-473h727v-84h-811v1153h768v-84z" />
<glyph unicode="&#xcc;" d="M471 1597l234 -204l14 -17q10 -10 10 -22q0 -19 -12 -31t-31 -12q-16 0 -37 18l-233 205q-25 22 -25 41q0 17 12 29t29 12q14 0 39 -19zM571 1153h84v-1153h-84v1153z" />
<glyph unicode="&#xcd;" d="M571 1153h84v-1153h-84v1153zM887 1534l-234 -205q-23 -18 -39 -18q-17 0 -29 12t-12 31q0 16 25 39l233 204q24 19 39 19q17 0 29 -12t12 -31q0 -18 -24 -39z" />
<glyph unicode="&#xce;" d="M614 1616l271 -221q26 -20 26 -43q0 -17 -12 -29t-29 -12q-14 0 -36 16l-220 180l-219 -180q-22 -16 -37 -16q-17 0 -29 12t-12 29q0 22 27 41zM571 1153h84v-1153h-84v1153z" />
<glyph unicode="&#xcf;" d="M571 1153h84v-1153h-84v1153zM389 1559q43 0 73 -31t30 -74q0 -40 -31 -70t-72 -30t-71.5 30.5t-30.5 71.5t30.5 72t71.5 31zM842 1559q42 0 72 -31t30 -74q0 -40 -30.5 -70t-71.5 -30t-72 30.5t-31 71.5t31 72t72 31z" />
<glyph unicode="&#xd0;" d="M55 557q-55 0 -55 43q0 41 55 41h574q55 0 55 -41q0 -43 -55 -43h-574zM596 0h-383v1153h381h8q195 -3 329 -153t134 -365v-115q0 -143 -61.5 -262.5t-169.5 -188.5t-238 -69zM297 84h307q96 0 184 59t140.5 156t52.5 203v149q0 82 -36 167.5t-97 148.5q-54 54 -114.5 78 t-143.5 24h-293v-985z" />
<glyph unicode="&#xd1;" d="M887 1542q16 0 28.5 -12t12.5 -29q0 -12 -9 -24.5t-36 -38.5q-74 -74 -142 -74q-34 0 -69.5 13.5t-96.5 49.5q-53 35 -88 35q-30 0 -51.5 -14t-66.5 -62q-13 -16 -35 -16q-17 0 -29 11t-12 28q0 22 39 61q44 41 79.5 58.5t73.5 17.5q31 0 56.5 -9t74.5 -38 q61 -34 81 -42.5t40 -8.5q26 0 48.5 15t68.5 63q16 16 33 16zM211 0v1153h106l625 -1032v1032h84v-1153h-106l-625 1032v-1032h-84z" />
<glyph unicode="&#xd2;" d="M459 1597l233 -204l15 -17q10 -10 10 -22q0 -19 -12 -31t-31 -12q-16 0 -37 18l-234 205q-24 21 -24 41q0 17 12 29t29 12q14 0 39 -19zM614 1180q142 0 259 -80.5t184 -221.5t67 -313q0 -162 -68.5 -300t-186 -218t-255.5 -80q-140 0 -257.5 80.5t-185 220t-67.5 305.5 t67.5 306t185 220.5t257.5 80.5zM614 1096q-116 0 -214 -70.5t-155 -191t-57 -261.5t57.5 -261.5t155.5 -190.5t213 -70q114 0 212 70t156 189t58 257q0 221 -124 375t-302 154z" />
<glyph unicode="&#xd3;" d="M827 1534l-233 -205q-23 -18 -39 -18q-17 0 -29 12t-12 31q0 16 25 39l233 204q24 19 39 19q17 0 29 -12t12 -31q0 -17 -25 -39zM614 1180q142 0 259 -80.5t184 -221.5t67 -313q0 -162 -68.5 -300t-186 -218t-255.5 -80q-140 0 -257.5 80.5t-185 220t-67.5 305.5 t67.5 306t185 220.5t257.5 80.5zM614 1096q-116 0 -214 -70.5t-155 -191t-57 -261.5t57.5 -261.5t155.5 -190.5t213 -70q114 0 212 70t156 189t58 257q0 221 -124 375t-302 154z" />
<glyph unicode="&#xd4;" d="M612 1616l271 -221q26 -20 26 -43q0 -17 -12 -29t-29 -12q-15 0 -37 16l-219 180l-219 -180q-22 -16 -37 -16q-17 0 -29 12t-12 29q0 22 27 41zM614 1180q142 0 259 -80.5t184 -221.5t67 -313q0 -162 -68.5 -300t-186 -218t-255.5 -80q-140 0 -257.5 80.5t-185 220 t-67.5 305.5t67.5 306t185 220.5t257.5 80.5zM614 1096q-116 0 -214 -70.5t-155 -191t-57 -261.5t57.5 -261.5t155.5 -190.5t213 -70q114 0 212 70t156 189t58 257q0 221 -124 375t-302 154z" />
<glyph unicode="&#xd5;" d="M903 1542q16 0 28.5 -12t12.5 -29q0 -12 -9 -24.5t-36 -38.5q-74 -74 -141 -74q-34 0 -69.5 13.5t-96.5 49.5q-53 35 -88 35q-30 0 -52 -14t-67 -62q-13 -16 -35 -16q-17 0 -29 11t-12 28q0 22 39 61q82 76 154 76q31 0 56.5 -9t74.5 -38q61 -34 81 -42.5t40 -8.5 q26 0 47.5 15t68.5 63q16 16 33 16zM614 1180q142 0 259 -80.5t184 -221.5t67 -313q0 -162 -68.5 -300t-186 -218t-255.5 -80q-140 0 -257.5 80.5t-185 220t-67.5 305.5t67.5 306t185 220.5t257.5 80.5zM614 1096q-116 0 -214 -70.5t-155 -191t-57 -261.5t57.5 -261.5 t155.5 -190.5t213 -70q114 0 212 70t156 189t58 257q0 221 -124 375t-302 154z" />
<glyph unicode="&#xd6;" d="M387 1559q42 0 72 -31t30 -74q0 -40 -30.5 -70t-71.5 -30t-71.5 30.5t-30.5 71.5t30.5 72t71.5 31zM840 1559q42 0 72 -31t30 -74q0 -40 -30.5 -70t-71.5 -30t-72 30.5t-31 71.5t31 72t72 31zM614 1180q142 0 259 -80.5t184 -221.5t67 -313q0 -162 -68.5 -300t-186 -218 t-255.5 -80q-140 0 -257.5 80.5t-185 220t-67.5 305.5t67.5 306t185 220.5t257.5 80.5zM614 1096q-116 0 -214 -70.5t-155 -191t-57 -261.5t57.5 -261.5t155.5 -190.5t213 -70q114 0 212 70t156 189t58 257q0 221 -124 375t-302 154z" />
<glyph unicode="&#xd7;" d="M614 637l291 291q22 22 39 22q18 0 30.5 -12.5t12.5 -30.5q0 -17 -22 -39l-291 -290l291 -293q22 -20 22 -39q0 -17 -12 -29t-31 -12t-39 20l-291 293l-290 -293q-23 -20 -39 -20q-19 0 -31 12t-12 29q0 19 20 39l293 293l-293 290q-20 23 -20 39q0 19 12 31t31 12 q15 0 37 -22z" />
<glyph unicode="&#xd8;" d="M289 104l-133 -167q-19 -25 -37 -25q-15 0 -26 11t-11 26q0 12 16 33l142 178q-136 182 -136 413q0 125 40 238t108 193.5t162.5 128t199.5 47.5q176 0 324 -136l135 170q19 25 37 25q15 0 26 -11t11 -26q0 -10 -17 -33l-143 -180q66 -81 101.5 -190t35.5 -226 q0 -166 -67.5 -305.5t-185 -220t-257.5 -80.5q-185 0 -325 137zM295 229l590 746q-121 121 -271 121q-116 0 -214 -70.5t-155 -191t-57 -261.5q0 -186 107 -344zM934 920l-592 -748q121 -121 272 -121q115 0 213 70t155.5 190.5t57.5 261.5q0 196 -106 347z" />
<glyph unicode="&#xd9;" d="M465 1597l233 -204l15 -17q10 -10 10 -22q0 -19 -12 -31t-31 -12q-16 0 -37 18l-233 205q-25 22 -25 41q0 17 12 29t29 12q14 0 39 -19zM1022 1153v-774q0 -174 -118 -293t-290 -119q-173 0 -290 118.5t-117 293.5v774h84v-774q0 -138 93.5 -233t229.5 -95 q135 0 229.5 95t94.5 233v774h84z" />
<glyph unicode="&#xda;" d="M821 1534l-233 -205q-23 -18 -39 -18q-17 0 -29 12t-12 31q0 17 24 39l234 204q24 19 39 19q17 0 29 -12t12 -31q0 -17 -25 -39zM1022 1153v-774q0 -174 -118 -293t-290 -119q-173 0 -290 118.5t-117 293.5v774h84v-774q0 -138 93.5 -233t229.5 -95q135 0 229.5 95 t94.5 233v774h84z" />
<glyph unicode="&#xdb;" d="M612 1616l271 -221q26 -20 26 -43q0 -17 -12 -29t-29 -12q-15 0 -37 16l-219 180l-219 -180q-22 -16 -37 -16q-17 0 -29 12t-12 29q0 22 27 41zM1022 1153v-774q0 -174 -118 -293t-290 -119q-173 0 -290 118.5t-117 293.5v774h84v-774q0 -138 93.5 -233t229.5 -95 q135 0 229.5 95t94.5 233v774h84z" />
<glyph unicode="&#xdc;" d="M387 1559q42 0 72 -31t30 -74q0 -40 -30.5 -70t-71.5 -30t-71.5 30.5t-30.5 71.5t30.5 72t71.5 31zM840 1559q42 0 72 -31t30 -74q0 -40 -30.5 -70t-71.5 -30t-72 30.5t-31 71.5t31 72t72 31zM1022 1153v-774q0 -174 -118 -293t-290 -119q-173 0 -290 118.5t-117 293.5 v774h84v-774q0 -138 93.5 -233t229.5 -95q135 0 229.5 95t94.5 233v774h84z" />
<glyph unicode="&#xdd;" d="M821 1534l-233 -205q-23 -18 -39 -18q-17 0 -29 12t-12 31q0 17 24 39l234 204q24 19 39 19q17 0 29 -12t12 -31q0 -17 -25 -39zM152 1153h100l369 -549l360 549h94l-416 -633v-520h-84v520z" />
<glyph unicode="&#xde;" d="M338 268v-184h283q57 0 57 -41q0 -43 -57 -43h-478q-55 0 -55 43q0 41 55 41h111v985h-111q-55 0 -55 43q0 41 55 41h478q57 0 57 -41q0 -43 -57 -43h-283v-121h297q163 0 275 -98t112 -240q0 -143 -121 -242.5t-295 -99.5h-268zM338 352h274q134 0 230 76t96 182 q0 104 -87 179t-208 75h-305v-512z" />
<glyph unicode="&#xdf;" d="M254 0v975q0 109 85.5 185.5t205.5 76.5q125 0 212 -87.5t87 -211.5q0 -123 -119 -203q297 -121 297 -405q0 -155 -78.5 -259t-195.5 -104q-92 0 -155 69.5t-63 170.5q0 22 11 34.5t30 12.5q40 0 43 -49q5 -71 40.5 -112.5t93.5 -41.5q80 0 135 81.5t55 199.5 q0 159 -125 262q-50 40 -117 65t-125 25h-10q-55 0 -55 43q0 19 12.5 30t34.5 11h10q78 0 137.5 52t59.5 120q0 88 -63 150.5t-152 62.5q-86 0 -146.5 -51.5t-60.5 -126.5v-975h-84z" />
<glyph unicode="&#xe0;" d="M436 1290l234 -205l14 -16q10 -10 10 -22q0 -19 -12 -31t-31 -12q-16 0 -37 18l-233 205q-25 22 -25 41q0 17 12 29t29 12q14 0 39 -19zM858 0v137q-182 -170 -391 -170q-143 0 -231.5 72.5t-88.5 189.5q0 133 120.5 216t312.5 83q70 0 128.5 -9t149.5 -34v146 q0 75 -70 121.5t-182 46.5q-55 0 -112 -12.5t-179 -49.5q-16 -4 -20 -4q-15 0 -27 12t-12 29q0 31 35 43q85 29 174.5 47.5t146.5 18.5q142 0 236 -71.5t94 -180.5v-631h-84zM858 229v185q-123 30 -262 30q-163 0 -264 -60t-101 -157q0 -80 64 -128t170 -48q109 0 200 41 t193 137z" />
<glyph unicode="&#xe1;" d="M793 1227l-234 -205q-23 -18 -39 -18q-17 0 -29 12t-12 31q0 10 4.5 17t20.5 21l233 205q24 19 39 19q17 0 29 -12t12 -31q0 -18 -24 -39zM858 0v137q-182 -170 -391 -170q-143 0 -231.5 72.5t-88.5 189.5q0 133 120.5 216t312.5 83q70 0 128.5 -9t149.5 -34v146 q0 75 -70 121.5t-182 46.5q-55 0 -112 -12.5t-179 -49.5q-16 -4 -20 -4q-15 0 -27 12t-12 29q0 31 35 43q85 29 174.5 47.5t146.5 18.5q142 0 236 -71.5t94 -180.5v-631h-84zM858 229v185q-123 30 -262 30q-163 0 -264 -60t-101 -157q0 -80 64 -128t170 -48q109 0 200 41 t193 137z" />
<glyph unicode="&#xe2;" d="M594 1309l270 -222q27 -21 27 -43q0 -17 -12 -28.5t-29 -11.5q-15 0 -37 16l-219 180l-219 -180q-22 -16 -37 -16q-17 0 -29 11.5t-12 28.5q0 22 27 41zM858 0v137q-182 -170 -391 -170q-143 0 -231.5 72.5t-88.5 189.5q0 133 120.5 216t312.5 83q70 0 128.5 -9 t149.5 -34v146q0 75 -70 121.5t-182 46.5q-55 0 -112 -12.5t-179 -49.5q-16 -4 -20 -4q-15 0 -27 12t-12 29q0 31 35 43q85 29 174.5 47.5t146.5 18.5q142 0 236 -71.5t94 -180.5v-631h-84zM858 229v185q-123 30 -262 30q-163 0 -264 -60t-101 -157q0 -80 64 -128t170 -48 q109 0 200 41t193 137z" />
<glyph unicode="&#xe3;" d="M870 1235q16 0 28.5 -12t12.5 -29q0 -12 -9 -25t-36 -39q-73 -73 -141 -73q-34 0 -69.5 13.5t-96.5 49.5q-53 35 -88 35q-30 0 -52 -14t-67 -62q-13 -16 -35 -16q-17 0 -29 11t-12 28q0 22 39 61q82 76 154 76q31 0 56.5 -9t74.5 -38q61 -34 81 -42.5t40 -8.5 q26 0 48.5 15t68.5 63q16 16 32 16zM858 0v137q-182 -170 -391 -170q-143 0 -231.5 72.5t-88.5 189.5q0 133 120.5 216t312.5 83q70 0 128.5 -9t149.5 -34v146q0 75 -70 121.5t-182 46.5q-55 0 -112 -12.5t-179 -49.5q-16 -4 -20 -4q-15 0 -27 12t-12 29q0 31 35 43 q85 29 174.5 47.5t146.5 18.5q142 0 236 -71.5t94 -180.5v-631h-84zM858 229v185q-123 30 -262 30q-163 0 -264 -60t-101 -157q0 -80 64 -128t170 -48q109 0 200 41t193 137z" />
<glyph unicode="&#xe4;" d="M367 1251q43 0 72.5 -30.5t29.5 -73.5q0 -40 -30.5 -70t-71.5 -30t-72 30.5t-31 71.5t31 71.5t72 30.5zM819 1251q43 0 73 -30.5t30 -73.5q0 -40 -31 -70t-72 -30t-71.5 30.5t-30.5 71.5t30.5 71.5t71.5 30.5zM858 0v137q-182 -170 -391 -170q-143 0 -231.5 72.5 t-88.5 189.5q0 133 120.5 216t312.5 83q70 0 128.5 -9t149.5 -34v146q0 75 -70 121.5t-182 46.5q-55 0 -112 -12.5t-179 -49.5q-16 -4 -20 -4q-15 0 -27 12t-12 29q0 31 35 43q85 29 174.5 47.5t146.5 18.5q142 0 236 -71.5t94 -180.5v-631h-84zM858 229v185 q-123 30 -262 30q-163 0 -264 -60t-101 -157q0 -80 64 -128t170 -48q109 0 200 41t193 137z" />
<glyph unicode="&#xe5;" d="M594 1354q80 0 135 -55t55 -134q0 -74 -56 -128t-134 -54t-134.5 55t-56.5 131q0 75 56.5 130t134.5 55zM594 1286q-51 0 -87 -34.5t-36 -82.5q0 -49 36 -83.5t87 -34.5t87 34.5t36 81.5q0 49 -36 84t-87 35zM858 0v137q-182 -170 -391 -170q-143 0 -231.5 72.5 t-88.5 189.5q0 133 120.5 216t312.5 83q70 0 128.5 -9t149.5 -34v146q0 75 -70 121.5t-182 46.5q-55 0 -112 -12.5t-179 -49.5q-16 -4 -20 -4q-15 0 -27 12t-12 29q0 31 35 43q85 29 174.5 47.5t146.5 18.5q142 0 236 -71.5t94 -180.5v-631h-84zM858 229v185 q-123 30 -262 30q-163 0 -264 -60t-101 -157q0 -80 64 -128t170 -48q109 0 200 41t193 137z" />
<glyph unicode="&#xe6;" d="M655 125v-70q0 -55 -41 -55t-41 55v51q-60 -72 -119 -105.5t-126 -33.5q-130 0 -216.5 86.5t-86.5 216.5q0 100 92 174q47 35 127 58.5t155 23.5q85 0 174 -24v123q0 72 -52.5 123t-127.5 51q-93 0 -172 -51q-26 -15 -37 -15q-13 0 -26 13.5t-13 27.5q0 32 60 57 q116 52 203 52q75 0 138.5 -47t92.5 -125q37 79 102.5 125.5t139.5 46.5q92 0 162 -57t102 -160q34 -104 37 -258h-529q10 -156 83.5 -256.5t176.5 -100.5q44 0 86.5 24.5t116.5 92.5q13 10 27 10q17 0 29 -12.5t12 -28.5q0 -15 -14 -31.5t-50 -46.5q-65 -48 -114 -70 t-97 -22q-71 0 -138 41.5t-116 116.5zM573 225v191q-89 26 -161 26q-66 0 -142 -25t-110 -57q-43 -43 -43 -112q0 -86 60.5 -141.5t154.5 -55.5q57 0 113 40.5t128 133.5zM655 492h441q-16 134 -47 194q-26 54 -71 83.5t-99 29.5q-184 0 -224 -307z" />
<glyph unicode="&#xe7;" d="M567 0h78v-96q63 -2 98 -34.5t35 -90.5q0 -60 -45 -96.5t-117 -36.5q-71 0 -143 37q-21 10 -29 20t-8 25q0 17 12 28t29 11q9 0 31 -11q58 -32 104 -32q40 0 65 16.5t25 42.5q0 51 -94 51h-41v166zM1047 610q0 -55 -41 -55q-20 0 -30 11.5t-13 37.5q-6 82 -101.5 138.5 t-224.5 56.5q-169 0 -275 -105t-106 -274q0 -161 107 -265t274 -104q223 0 383 148q20 20 37 20q15 0 27 -12t12 -27q0 -40 -88 -100q-163 -113 -375 -113q-201 0 -331 127t-130 324q0 203 133 334t338 131q54 0 111 -12t120 -40t110.5 -85t62.5 -136z" />
<glyph unicode="&#xe8;" d="M467 1290l233 -205l15 -16q10 -10 10 -22q0 -19 -12 -31t-31 -12q-16 0 -37 18l-233 205q-25 22 -25 41q0 17 12 29t29 12q14 0 39 -19zM1065 408h-852q22 -161 135 -259t279 -98q96 0 196.5 31t161.5 80q20 14 33 14q15 0 27 -12t12 -29q0 -35 -68.5 -75t-171 -66.5 t-192.5 -26.5q-207 0 -351.5 139t-144.5 338q0 186 135 312.5t332 126.5q147 0 262.5 -73.5t171.5 -201.5q22 -50 28.5 -89.5t6.5 -110.5zM213 492h766q-25 139 -129.5 223t-253.5 84t-252 -83t-131 -224z" />
<glyph unicode="&#xe9;" d="M823 1227l-233 -205q-23 -18 -39 -18q-17 0 -29 12t-12 31q0 10 4.5 17t20.5 21l233 205q24 19 39 19q17 0 29 -12t12 -31q0 -17 -25 -39zM1065 408h-852q22 -161 135 -259t279 -98q96 0 196.5 31t161.5 80q20 14 33 14q15 0 27 -12t12 -29q0 -35 -68.5 -75t-171 -66.5 t-192.5 -26.5q-207 0 -351.5 139t-144.5 338q0 186 135 312.5t332 126.5q147 0 262.5 -73.5t171.5 -201.5q22 -50 28.5 -89.5t6.5 -110.5zM213 492h766q-25 139 -129.5 223t-253.5 84t-252 -83t-131 -224z" />
<glyph unicode="&#xea;" d="M625 1309l270 -222q27 -21 27 -43q0 -17 -12 -28.5t-29 -11.5q-15 0 -37 16l-219 180l-219 -180q-22 -16 -37 -16q-17 0 -29 11.5t-12 28.5q0 23 26 41zM1065 408h-852q22 -161 135 -259t279 -98q96 0 196.5 31t161.5 80q20 14 33 14q15 0 27 -12t12 -29q0 -35 -68.5 -75 t-171 -66.5t-192.5 -26.5q-207 0 -351.5 139t-144.5 338q0 186 135 312.5t332 126.5q147 0 262.5 -73.5t171.5 -201.5q22 -50 28.5 -89.5t6.5 -110.5zM213 492h766q-25 139 -129.5 223t-253.5 84t-252 -83t-131 -224z" />
<glyph unicode="&#xeb;" d="M397 1251q43 0 73 -30.5t30 -73.5q0 -40 -31 -70t-72 -30t-71.5 30.5t-30.5 71.5t30.5 71.5t71.5 30.5zM850 1251q43 0 72.5 -30.5t29.5 -73.5q0 -40 -30.5 -70t-71.5 -30t-71.5 30.5t-30.5 71.5t30.5 71.5t71.5 30.5zM1065 408h-852q22 -161 135 -259t279 -98 q96 0 196.5 31t161.5 80q20 14 33 14q15 0 27 -12t12 -29q0 -35 -68.5 -75t-171 -66.5t-192.5 -26.5q-207 0 -351.5 139t-144.5 338q0 186 135 312.5t332 126.5q147 0 262.5 -73.5t171.5 -201.5q22 -50 28.5 -89.5t6.5 -110.5zM213 492h766q-25 139 -129.5 223t-253.5 84 t-252 -83t-131 -224z" />
<glyph unicode="&#xec;" d="M444 1290l234 -205l14 -16q10 -10 10 -22q0 -19 -12 -31t-31 -12q-15 0 -36 18l-234 205q-24 21 -24 41q0 17 12 29t29 12q13 0 38 -19zM571 0v770h-241q-56 0 -56 43q0 41 56 41h325v-854h-84z" />
<glyph unicode="&#xed;" d="M801 1227l-234 -205q-23 -18 -39 -18q-17 0 -29 12t-12 31q0 10 4.5 17t20.5 21l233 205q24 19 39 19q17 0 29 -12t12 -31q0 -18 -24 -39zM571 0v770h-241q-56 0 -56 43q0 41 56 41h325v-854h-84z" />
<glyph unicode="&#xee;" d="M580 1309l270 -222q27 -21 27 -43q0 -17 -12 -28.5t-29 -11.5q-15 0 -37 16l-219 180l-220 -180q-22 -16 -36 -16q-17 0 -29 11.5t-12 28.5q0 23 26 41zM571 0v770h-241q-56 0 -56 43q0 41 56 41h325v-854h-84z" />
<glyph unicode="&#xef;" d="M362 1251q43 0 73 -30.5t30 -73.5q0 -40 -31 -70t-72 -30t-71.5 30.5t-30.5 71.5t30.5 71.5t71.5 30.5zM815 1251q43 0 73 -30.5t30 -73.5q0 -40 -31 -70t-72 -30t-71.5 30.5t-30.5 71.5t30.5 71.5t71.5 30.5zM571 0v770h-241q-56 0 -56 43q0 41 56 41h325v-854h-84z" />
<glyph unicode="&#xf0;" d="M901 1182l-153 -70q153 -131 243 -310t90 -349q0 -220 -135 -355q-136 -133 -332 -133q-195 0 -331 133.5t-136 325.5q0 189 135.5 323t327.5 134q84 0 149.5 -24t149.5 -85q-52 98 -117 177.5t-130 125.5l-187 -86q-4 -2 -14 -2q-15 0 -28 14.5t-13 32.5q0 27 18 33 l129 57q-110 46 -200 64q-41 8 -41 37q0 20 12 32.5t31 12.5q41 0 126.5 -28t176.5 -71l194 86l15 3q15 0 27 -12.5t12 -30.5q0 -27 -19 -35zM616 799q-160 0 -271.5 -109t-111.5 -264q0 -157 111.5 -266t271.5 -109q158 0 270.5 108.5t112.5 260.5q0 161 -110.5 270 t-272.5 109z" />
<glyph unicode="&#xf1;" d="M870 1235q16 0 28.5 -12t12.5 -29q0 -12 -9 -25t-36 -39q-73 -73 -141 -73q-34 0 -69.5 13.5t-96.5 49.5q-53 35 -88 35q-30 0 -52 -14t-67 -62q-13 -16 -35 -16q-17 0 -29 11t-12 28q0 22 39 61q82 76 154 76q31 0 56.5 -9t74.5 -38q61 -34 81 -42.5t40 -8.5 q26 0 48.5 15t68.5 63q16 16 32 16zM342 854v-141q89 98 157 134t163 36q136 0 228.5 -80t92.5 -199v-604h-84v590q0 89 -78 155q-37 31 -72.5 42.5t-95.5 11.5q-112 0 -194 -68q-38 -28 -117 -129v-602h-84v854h84z" />
<glyph unicode="&#xf2;" d="M471 1290l234 -205l14 -16q10 -10 10 -22q0 -19 -12 -31t-31 -12q-16 0 -37 18l-233 205q-25 22 -25 41q0 17 12 29t29 12q14 0 39 -19zM614 883q197 0 332 -134t135 -329q0 -123 -62.5 -227.5t-170 -165t-234.5 -60.5q-195 0 -331 133.5t-136 325.5q0 189 136 323 t331 134zM614 799q-160 0 -271.5 -109t-111.5 -264q0 -157 111.5 -266t271.5 -109q158 0 270.5 108.5t112.5 260.5q0 161 -110.5 270t-272.5 109z" />
<glyph unicode="&#xf3;" d="M815 1227l-233 -205q-23 -18 -39 -18q-17 0 -29 12t-12 31q0 10 4.5 17t19.5 21l234 205q24 19 39 19q17 0 29 -12t12 -31q0 -17 -25 -39zM614 883q197 0 332 -134t135 -329q0 -123 -62.5 -227.5t-170 -165t-234.5 -60.5q-195 0 -331 133.5t-136 325.5q0 189 136 323 t331 134zM614 799q-160 0 -271.5 -109t-111.5 -264q0 -157 111.5 -266t271.5 -109q158 0 270.5 108.5t112.5 260.5q0 161 -110.5 270t-272.5 109z" />
<glyph unicode="&#xf4;" d="M614 1309l271 -222q26 -20 26 -43q0 -17 -12 -28.5t-29 -11.5q-14 0 -36 16l-220 180l-219 -180q-22 -16 -37 -16q-17 0 -29 11.5t-12 28.5q0 22 27 41zM614 883q197 0 332 -134t135 -329q0 -123 -62.5 -227.5t-170 -165t-234.5 -60.5q-195 0 -331 133.5t-136 325.5 q0 189 136 323t331 134zM614 799q-160 0 -271.5 -109t-111.5 -264q0 -157 111.5 -266t271.5 -109q158 0 270.5 108.5t112.5 260.5q0 161 -110.5 270t-272.5 109z" />
<glyph unicode="&#xf5;" d="M903 1235q16 0 28.5 -12t12.5 -29q0 -12 -9 -25t-36 -39q-73 -73 -141 -73q-34 0 -69.5 13.5t-96.5 49.5q-53 35 -88 35q-30 0 -52 -14t-67 -62q-13 -16 -35 -16q-17 0 -29 11t-12 28q0 22 39 61q82 76 154 76q31 0 56.5 -9t74.5 -38q61 -34 81 -42.5t40 -8.5 q26 0 47.5 15t68.5 63q16 16 33 16zM614 883q197 0 332 -134t135 -329q0 -123 -62.5 -227.5t-170 -165t-234.5 -60.5q-195 0 -331 133.5t-136 325.5q0 189 136 323t331 134zM614 799q-160 0 -271.5 -109t-111.5 -264q0 -157 111.5 -266t271.5 -109q158 0 270.5 108.5 t112.5 260.5q0 161 -110.5 270t-272.5 109z" />
<glyph unicode="&#xf6;" d="M387 1251q43 0 72.5 -30.5t29.5 -73.5q0 -40 -30.5 -70t-71.5 -30t-71.5 30.5t-30.5 71.5t30.5 71.5t71.5 30.5zM840 1251q43 0 72.5 -30.5t29.5 -73.5q0 -40 -30.5 -70t-71.5 -30t-72 30.5t-31 71.5t31 71.5t72 30.5zM614 883q197 0 332 -134t135 -329 q0 -123 -62.5 -227.5t-170 -165t-234.5 -60.5q-195 0 -331 133.5t-136 325.5q0 189 136 323t331 134zM614 799q-160 0 -271.5 -109t-111.5 -264q0 -157 111.5 -266t271.5 -109q158 0 270.5 108.5t112.5 260.5q0 161 -110.5 270t-272.5 109z" />
<glyph unicode="&#xf7;" d="M1026 537h-823q-56 0 -56 41q0 40 56 40h823q55 0 55 -40q0 -41 -55 -41zM614 254q43 0 73 -29.5t30 -72.5q0 -41 -31 -71t-72 -30t-70.5 30t-29.5 73q0 40 29.5 70t70.5 30zM614 1106q43 0 73 -29.5t30 -72.5q0 -41 -31 -71t-72 -30t-70.5 30t-29.5 73q0 40 29.5 70 t70.5 30z" />
<glyph unicode="&#xf8;" d="M315 72l-135 -140q-20 -20 -35 -20t-25.5 11t-10.5 26t20 35l135 137q-117 135 -117 305q0 125 62 230t169.5 166t235.5 61q167 0 295 -101l131 136q22 20 37 20q14 0 24.5 -11t10.5 -26t-20 -35l-131 -133q120 -132 120 -309q0 -125 -62 -230t-169.5 -166t-235.5 -61 q-164 0 -299 105zM903 674l-528 -541q105 -82 239 -82q160 0 271.5 109t111.5 264q0 139 -94 250zM324 182l526 539q-104 78 -236 78q-160 0 -271.5 -109t-111.5 -264q0 -137 93 -244z" />
<glyph unicode="&#xf9;" d="M455 1290l233 -205l14 -16q11 -11 11 -22q0 -19 -12 -31t-31 -12q-16 0 -37 18l-234 205q-24 21 -24 41q0 17 12 29t29 12q14 0 39 -19zM983 854v-854h-84v135q-171 -168 -373 -168q-123 0 -197.5 73.5t-74.5 195.5v618h84v-618q0 -77 54 -131t132 -54q205 0 375 185v618 h84z" />
<glyph unicode="&#xfa;" d="M784 1227l-233 -205q-23 -18 -39 -18q-17 0 -29 12t-12 31q0 10 4.5 17t20.5 21l233 205q24 19 39 19q17 0 29 -12t12 -31q0 -17 -25 -39zM983 854v-854h-84v135q-171 -168 -373 -168q-123 0 -197.5 73.5t-74.5 195.5v618h84v-618q0 -77 54 -131t132 -54q205 0 375 185 v618h84z" />
<glyph unicode="&#xfb;" d="M598 1309l270 -222q27 -21 27 -43q0 -17 -12 -28.5t-29 -11.5q-15 0 -37 16l-219 180l-219 -180q-22 -16 -37 -16q-17 0 -29 11.5t-12 28.5q0 22 27 41zM983 854v-854h-84v135q-171 -168 -373 -168q-123 0 -197.5 73.5t-74.5 195.5v618h84v-618q0 -77 54 -131t132 -54 q205 0 375 185v618h84z" />
<glyph unicode="&#xfc;" d="M371 1251q43 0 72.5 -30.5t29.5 -73.5q0 -40 -30.5 -70t-71.5 -30t-72 30.5t-31 71.5t31 71.5t72 30.5zM823 1251q43 0 73 -30.5t30 -73.5q0 -40 -31 -70t-72 -30t-71.5 30.5t-30.5 71.5t30.5 71.5t71.5 30.5zM983 854v-854h-84v135q-171 -168 -373 -168 q-123 0 -197.5 73.5t-74.5 195.5v618h84v-618q0 -77 54 -131t132 -54q205 0 375 185v618h84z" />
<glyph unicode="&#xfd;" d="M887 1227l-234 -205q-23 -18 -39 -18q-17 0 -29 12t-12 31q0 10 4.5 17t20.5 21l233 205q24 19 39 19q17 0 29 -12t12 -31q0 -18 -24 -39zM1081 854l-606 -1235h-84l187 381l-426 854h96l377 -762l370 762h86z" />
<glyph unicode="&#xfe;" d="M295 1208v-522q82 106 166 151.5t201 45.5q190 0 318 -123.5t128 -306.5t-128.5 -308t-317.5 -125q-118 0 -207 48t-160 149v-514h201q55 0 55 -41q0 -43 -55 -43h-396q-55 0 -55 43q0 41 55 41h111v1421h-111q-55 0 -55 43q0 41 55 41h195zM659 799q-152 0 -258 -100.5 t-106 -245.5q0 -146 106 -247.5t258 -101.5q151 0 258 101.5t107 243.5q0 149 -105 249.5t-260 100.5z" />
<glyph unicode="&#xff;" d="M387 1251q43 0 72.5 -30.5t29.5 -73.5q0 -40 -30.5 -70t-71.5 -30t-71.5 30.5t-30.5 71.5t30.5 71.5t71.5 30.5zM840 1251q43 0 72.5 -30.5t29.5 -73.5q0 -40 -30.5 -70t-71.5 -30t-72 30.5t-31 71.5t31 71.5t72 30.5zM1081 854l-606 -1235h-84l187 381l-426 854h96 l377 -762l370 762h86z" />
<glyph unicode="&#x152;" d="M1208 84v-84h-669q-234 0 -376.5 158.5t-142.5 419.5q0 257 139 416t363 159h645v-84h-475v-428h244v-84h-244v-473h516zM608 1069h-65q-112 0 -191.5 -34.5t-138.5 -108.5q-109 -136 -109 -351q0 -212 109 -348q114 -143 330 -143h65v985z" />
<glyph unicode="&#x153;" d="M1182 408h-529q12 -152 87 -254.5t173 -102.5q44 0 86.5 24.5t116.5 92.5q13 10 27 10q15 0 28 -13t13 -28t-14 -31.5t-50 -46.5q-65 -48 -114 -70t-97 -22q-92 0 -171.5 65.5t-125.5 178.5q-44 -117 -115 -180.5t-157 -63.5q-127 0 -221 139t-94 328q0 182 93 315.5 t220 133.5q83 0 157 -63.5t117 -170.5q26 65 46 97.5t51 62.5q77 74 174 74q91 0 160.5 -57t103.5 -160q35 -106 35 -258zM655 492h443q-16 134 -47 194q-58 113 -172 113q-184 0 -224 -307zM340 799q-92 0 -161.5 -112t-69.5 -261q0 -98 32 -184.5t86 -138.5t115 -52 q91 0 161 112.5t70 258.5q0 153 -69 265t-164 112z" />
<glyph unicode="&#x178;" d="M387 1559q42 0 72 -31t30 -74q0 -40 -30.5 -70t-71.5 -30t-71.5 30.5t-30.5 71.5t30.5 72t71.5 31zM840 1559q42 0 72 -31t30 -74q0 -40 -30.5 -70t-71.5 -30t-72 30.5t-31 71.5t31 72t72 31zM152 1153h100l369 -549l360 549h94l-416 -633v-520h-84v520z" />
<glyph unicode="&#x2c6;" d="M614 1309l271 -222q26 -20 26 -43q0 -17 -12 -28.5t-29 -11.5q-14 0 -36 16l-220 180l-219 -180q-22 -16 -37 -16q-17 0 -29 11.5t-12 28.5q0 22 27 41z" />
<glyph unicode="&#x2dc;" d="M891 1235q16 0 28.5 -12t12.5 -29q0 -12 -9 -25t-36 -39q-73 -73 -142 -73q-34 0 -69 13.5t-96 49.5q-53 35 -88 35q-30 0 -52 -14t-67 -62q-13 -16 -35 -16q-17 0 -29 11t-12 28q0 22 39 61q44 41 79.5 58.5t73.5 17.5q31 0 57 -9t75 -38q62 -34 81.5 -42.5t38.5 -8.5 q26 0 48.5 15t68.5 63q16 16 33 16z" />
<glyph unicode="&#x2000;" horiz-adv-x="830" />
<glyph unicode="&#x2001;" horiz-adv-x="1661" />
<glyph unicode="&#x2002;" horiz-adv-x="830" />
<glyph unicode="&#x2003;" horiz-adv-x="1661" />
<glyph unicode="&#x2004;" horiz-adv-x="553" />
<glyph unicode="&#x2005;" horiz-adv-x="415" />
<glyph unicode="&#x2006;" horiz-adv-x="276" />
<glyph unicode="&#x2007;" horiz-adv-x="276" />
<glyph unicode="&#x2008;" horiz-adv-x="207" />
<glyph unicode="&#x2009;" horiz-adv-x="332" />
<glyph unicode="&#x200a;" horiz-adv-x="92" />
<glyph unicode="&#x2010;" d="M1026 528h-823q-56 0 -56 43q0 41 56 41h823q55 0 55 -41q0 -43 -55 -43z" />
<glyph unicode="&#x2011;" d="M1026 528h-823q-56 0 -56 43q0 41 56 41h823q55 0 55 -41q0 -43 -55 -43z" />
<glyph unicode="&#x2012;" d="M1026 528h-823q-56 0 -56 43q0 41 56 41h823q55 0 55 -41q0 -43 -55 -43z" />
<glyph unicode="&#x2013;" d="M1026 535h-823q-56 0 -56 43q0 40 56 40h823q55 0 55 -40q0 -43 -55 -43z" />
<glyph unicode="&#x2014;" d="M1171 535h-1114q-55 0 -55 43q0 40 55 40h1114q56 0 56 -40q0 -43 -56 -43z" />
<glyph unicode="&#x2018;" d="M805 1237l143 -461q4 -12 4 -20q0 -22 -17 -38t-42 -16q-38 0 -64 46l-297 489h273z" />
<glyph unicode="&#x2019;" d="M424 1237h272l-297 -543q-15 -29 -29 -40t-34 -11q-25 0 -42.5 17t-17.5 42q0 3 5 23z" />
<glyph unicode="&#x201a;" d="M424 297h272l-297 -543q-15 -29 -29 -40t-34 -11q-25 0 -42.5 17t-17.5 42q0 3 5 23z" />
<glyph unicode="&#x201c;" d="M891 1237l143 -461q4 -12 4 -20q0 -22 -17 -38t-42 -16q-39 0 -64 46l-280 489h256zM446 1237l144 -461q4 -12 4 -20q0 -22 -17 -38t-42 -16q-39 0 -64 46l-281 489h256z" />
<glyph unicode="&#x201d;" d="M338 1237h256l-281 -489q-25 -46 -63 -46q-25 0 -42.5 16t-17.5 38q0 5 5 20zM782 1237h256l-280 -489q-25 -46 -64 -46q-25 0 -42 16t-17 38q0 8 4 20z" />
<glyph unicode="&#x201e;" d="M338 297h256l-281 -490q-25 -45 -63 -45q-25 0 -42.5 16t-17.5 38q0 5 5 20zM782 297h256l-280 -490q-25 -45 -64 -45q-25 0 -42 16t-17 38q0 8 4 20z" />
<glyph unicode="&#x2022;" d="M618 690q80 0 138.5 -59.5t58.5 -141.5q0 -83 -59 -141.5t-142 -58.5t-141.5 59t-58.5 144q0 83 59 140.5t145 57.5z" />
<glyph unicode="&#x2026;" d="M205 172q43 0 72.5 -29.5t29.5 -72.5q0 -41 -30 -71t-70 -30q-43 0 -73 30t-30 71q0 42 30 72t71 30zM612 172q43 0 73 -29.5t30 -72.5q0 -41 -31 -71t-72 -30t-70.5 30t-29.5 71t29.5 71.5t70.5 30.5zM1024 172q41 0 70.5 -29.5t29.5 -72.5q0 -41 -30 -71t-70 -30 q-43 0 -72.5 30t-29.5 73q0 41 30.5 70.5t71.5 29.5z" />
<glyph unicode="&#x202f;" horiz-adv-x="332" />
<glyph unicode="&#x2039;" d="M129 428l426 403q23 23 43 23q17 0 29 -12t12 -29q0 -15 -23 -41l-292 -344l292 -346q23 -26 23 -41q0 -17 -12 -29t-29 -12t-43 23z" />
<glyph unicode="&#x203a;" d="M1108 426l-424 -403q-23 -23 -43 -23q-17 0 -29 12t-12 29q0 15 23 41l290 344l-290 346q-23 26 -23 41q0 17 12 29t29 12t43 -23z" />
<glyph unicode="&#x205f;" horiz-adv-x="415" />
<glyph unicode="&#x20ac;" d="M1063 868q0 -55 -43 -55q-38 0 -41 49q-6 94 -112 164t-242 70q-154 0 -267 -105t-141 -272h590q24 0 33.5 -8t9.5 -29q0 -22 -9 -30.5t-34 -8.5h-594v-123h535q24 0 33.5 -8t9.5 -29q0 -22 -10 -30.5t-33 -8.5h-531q28 -169 153.5 -281t288.5 -112q106 0 190 43.5 t167 141.5q18 20 37 20t30 -11t11 -28q0 -32 -78 -104q-158 -146 -357 -146q-95 0 -186.5 38t-162 102t-118.5 152.5t-59 184.5h-65q-25 0 -35 8.5t-10 30.5q0 20 10 28.5t35 8.5h61v123h-61q-25 0 -35 8.5t-10 30.5q0 21 9.5 29t35.5 8h65q23 198 163 329.5t329 131.5 q44 0 93 -8.5t106 -31t104.5 -56t84.5 -90t50 -126.5z" />
<glyph unicode="&#x2122;" d="M8 1085v68h496v-68h-215v-587h-68v587h-213zM1155 1153v-655h-68v567l-167 -377h-66l-170 377v-567h-68v655h101l170 -377l166 377h102z" />
<glyph unicode="&#x25fc;" horiz-adv-x="849" d="M0 850h850v-850h-850v850z" />
</font>
</defs>
</svg>
